<svg width="98" height="32" viewBox="0 0 98 32" fill="none" xmlns="http://www.w3.org/2000/svg">
<mask id="path-1-outside-1_0_1771" maskUnits="userSpaceOnUse" x="25" y="6" width="74" height="21" fill="black">
<rect fill="white" x="25" y="6" width="74" height="21"/>
<path d="M48.725 25H41.25V24.05C41.5833 23.8833 41.9083 23.7417 42.225 23.625C42.5417 23.5083 42.8833 23.4083 43.25 23.325V12.875L43.375 9.95H43.175L42.35 12.625L37.525 25H36.375L31.575 12.725L30.675 9.8H30.45L30.475 12.975V23.225C30.7917 23.2917 31.1417 23.4 31.525 23.55C31.9083 23.7 32.2667 23.8667 32.6 24.05V25H26.5V24.05C26.7667 23.9167 27.0917 23.7583 27.475 23.575C27.875 23.3917 28.25 23.2667 28.6 23.2V9.175C28.2667 9.10833 27.9083 9.01667 27.525 8.9C27.1583 8.78333 26.8333 8.63333 26.55 8.45V7.5H33.325L37.15 17.675L37.875 20.075H37.9L38.65 17.625L42.55 7.5H48.75V8.45C48.4667 8.61667 48.1583 8.76667 47.825 8.9C47.5083 9.01667 47.1833 9.10833 46.85 9.175V23.35C47.2 23.4167 47.5333 23.5167 47.85 23.65C48.1833 23.7833 48.475 23.9167 48.725 24.05V25ZM63.2422 21.375C63.2422 21.7417 63.2422 22.0583 63.2422 22.325C63.2589 22.5917 63.2839 22.875 63.3172 23.175L65.0422 23.425V24.3C64.8422 24.4 64.5672 24.5 64.2172 24.6C63.8839 24.7 63.5255 24.8 63.1422 24.9C62.7755 24.9833 62.4089 25.05 62.0422 25.1C61.6755 25.1667 61.3505 25.2167 61.0672 25.25H60.2172C60.0505 24.8667 59.9505 24.4833 59.9172 24.1C59.8839 23.7167 59.8589 23.25 59.8422 22.7H59.7172C59.6339 23.0333 59.4922 23.3583 59.2922 23.675C59.0922 23.975 58.8339 24.25 58.5172 24.5C58.2172 24.7333 57.8589 24.925 57.4422 25.075C57.0255 25.225 56.5589 25.3 56.0422 25.3C55.4922 25.3 54.9839 25.2167 54.5172 25.05C54.0505 24.8833 53.6422 24.65 53.2922 24.35C52.9422 24.05 52.6672 23.6917 52.4672 23.275C52.2672 22.8417 52.1672 22.3583 52.1672 21.825C52.1672 21.075 52.3089 20.4583 52.5922 19.975C52.8755 19.4917 53.3172 19.1 53.9172 18.8C54.5339 18.4833 55.3172 18.25 56.2672 18.1C57.2339 17.95 58.4005 17.8417 59.7672 17.775C59.9005 16.3417 59.8422 15.2917 59.5922 14.625C59.3422 13.9583 58.8005 13.625 57.9672 13.625C57.4505 13.625 56.9755 13.7083 56.5422 13.875L55.3672 16.875H54.2672C54.1339 16.675 54.0005 16.45 53.8672 16.2C53.7505 15.9333 53.6339 15.6583 53.5172 15.375C53.4172 15.075 53.3255 14.775 53.2422 14.475C53.1755 14.175 53.1255 13.8833 53.0922 13.6C53.7255 13.1667 54.5422 12.825 55.5422 12.575C56.5422 12.325 57.6005 12.2 58.7172 12.2C59.6672 12.2 60.4422 12.3083 61.0422 12.525C61.6422 12.725 62.1089 13.0083 62.4422 13.375C62.7922 13.725 63.0339 14.1417 63.1672 14.625C63.3005 15.1083 63.3672 15.625 63.3672 16.175C63.3672 17.175 63.3422 18.0833 63.2922 18.9C63.2589 19.7 63.2422 20.525 63.2422 21.375ZM57.6172 23.3C57.9672 23.3 58.2672 23.2333 58.5172 23.1C58.7672 22.9667 58.9755 22.8083 59.1422 22.625C59.3255 22.4417 59.4589 22.2417 59.5422 22.025C59.6422 21.8083 59.7172 21.6167 59.7672 21.45V18.95C58.9839 18.9667 58.3422 19.0167 57.8422 19.1C57.3422 19.1833 56.9505 19.325 56.6672 19.525C56.3839 19.7083 56.1839 19.95 56.0672 20.25C55.9672 20.5333 55.9172 20.8833 55.9172 21.3C55.9172 21.9333 56.0672 22.425 56.3672 22.775C56.6672 23.125 57.0839 23.3 57.6172 23.3ZM76.2332 18.3L80.1832 23.425C80.6165 23.5583 81.0249 23.7583 81.4082 24.025V25H75.0332V24.05C75.2165 23.9167 75.3999 23.8 75.5832 23.7C75.7832 23.5833 75.9832 23.4917 76.1832 23.425L73.8082 20.025L71.5082 23.425C71.7415 23.5083 71.9415 23.6 72.1082 23.7C72.2915 23.8 72.4665 23.9083 72.6332 24.025V25H67.9082V24.025C68.1415 23.8917 68.3499 23.775 68.5332 23.675C68.7332 23.575 68.9582 23.4917 69.2082 23.425L72.9082 18.825L69.1832 14.075C68.9499 13.9917 68.7415 13.9083 68.5582 13.825C68.3749 13.725 68.2082 13.6083 68.0582 13.475V12.5H74.3332V13.45C74.1332 13.5833 73.9499 13.7083 73.7832 13.825C73.6332 13.925 73.4415 14.0083 73.2082 14.075L75.3832 17.175L77.4582 14.075C77.1749 13.9917 76.9499 13.9 76.7832 13.8C76.6165 13.7 76.4665 13.5917 76.3332 13.475V12.5H80.9582V13.475C80.7915 13.5917 80.6082 13.7 80.4082 13.8C80.2082 13.9 79.9582 13.9917 79.6582 14.075L76.2332 18.3ZM92.3016 18.3L96.2516 23.425C96.6849 23.5583 97.0932 23.7583 97.4766 24.025V25H91.1016V24.05C91.2849 23.9167 91.4682 23.8 91.6516 23.7C91.8516 23.5833 92.0516 23.4917 92.2516 23.425L89.8766 20.025L87.5766 23.425C87.8099 23.5083 88.0099 23.6 88.1766 23.7C88.3599 23.8 88.5349 23.9083 88.7016 24.025V25H83.9766V24.025C84.2099 23.8917 84.4182 23.775 84.6016 23.675C84.8016 23.575 85.0266 23.4917 85.2766 23.425L88.9766 18.825L85.2516 14.075C85.0182 13.9917 84.8099 13.9083 84.6266 13.825C84.4432 13.725 84.2766 13.6083 84.1266 13.475V12.5H90.4016V13.45C90.2016 13.5833 90.0182 13.7083 89.8516 13.825C89.7016 13.925 89.5099 14.0083 89.2766 14.075L91.4516 17.175L93.5266 14.075C93.2432 13.9917 93.0182 13.9 92.8516 13.8C92.6849 13.7 92.5349 13.5917 92.4016 13.475V12.5H97.0266V13.475C96.8599 13.5917 96.6766 13.7 96.4766 13.8C96.2766 13.9 96.0266 13.9917 95.7266 14.075L92.3016 18.3Z"/>
</mask>
<path d="M48.725 25V26H49.725V25H48.725ZM41.25 25H40.25V26H41.25V25ZM41.25 24.05L40.8028 23.1556L40.25 23.432V24.05H41.25ZM42.225 23.625L41.8793 22.6867L42.225 23.625ZM43.25 23.325L43.4716 24.3001L44.25 24.1232V23.325H43.25ZM43.25 12.875L42.2509 12.8323L42.25 12.8536V12.875H43.25ZM43.375 9.95L44.3741 9.99269L44.4186 8.95H43.375V9.95ZM43.175 9.95V8.95H42.4369L42.2194 9.65528L43.175 9.95ZM42.35 12.625L43.2817 12.9883L43.2949 12.9544L43.3056 12.9197L42.35 12.625ZM37.525 25V26H38.2084L38.4567 25.3633L37.525 25ZM36.375 25L35.4437 25.3642L35.6923 26H36.375V25ZM31.575 12.725L30.6192 13.0191L30.6301 13.0546L30.6437 13.0892L31.575 12.725ZM30.675 9.8L31.6308 9.50591L31.4136 8.8H30.675V9.8ZM30.45 9.8V8.8H29.4421L29.45 9.80787L30.45 9.8ZM30.475 12.975H31.475L31.475 12.9671L30.475 12.975ZM30.475 23.225H29.475V24.0364L30.269 24.2036L30.475 23.225ZM31.525 23.55L31.1606 24.4812L31.525 23.55ZM32.6 24.05H33.6V23.4587L33.0819 23.1738L32.6 24.05ZM32.6 25V26H33.6V25H32.6ZM26.5 25H25.5V26H26.5V25ZM26.5 24.05L26.0528 23.1556L25.5 23.432V24.05H26.5ZM27.475 23.575L27.0583 22.6659L27.0509 22.6693L27.0435 22.6729L27.475 23.575ZM28.6 23.2L28.7871 24.1823L29.6 24.0275V23.2H28.6ZM28.6 9.175H29.6V8.3552L28.7961 8.19442L28.6 9.175ZM27.525 8.9L27.2218 9.853L27.2338 9.85667L27.525 8.9ZM26.55 8.45H25.55V8.99402L26.0067 9.28957L26.55 8.45ZM26.55 7.5V6.5H25.55V7.5H26.55ZM33.325 7.5L34.261 7.14812L34.0174 6.5H33.325V7.5ZM37.15 17.675L38.1073 17.3858L38.0977 17.3541L38.086 17.3231L37.15 17.675ZM37.875 20.075L36.9177 20.3642L37.1325 21.075H37.875V20.075ZM37.9 20.075V21.075H38.6397L38.8562 20.3677L37.9 20.075ZM38.65 17.625L37.7168 17.2656L37.7041 17.2985L37.6938 17.3323L38.65 17.625ZM42.55 7.5V6.5H41.8636L41.6168 7.14056L42.55 7.5ZM48.75 7.5H49.75V6.5H48.75V7.5ZM48.75 8.45L49.257 9.31193L49.75 9.02194V8.45H48.75ZM47.825 8.9L48.1707 9.83834L48.1836 9.83359L48.1964 9.82848L47.825 8.9ZM46.85 9.175L46.6539 8.19442L45.85 8.3552V9.175H46.85ZM46.85 23.35H45.85V24.1775L46.6629 24.3323L46.85 23.35ZM47.85 23.65L47.4619 24.5716L47.4702 24.5751L47.4786 24.5785L47.85 23.65ZM48.725 24.05H49.725V23.45L49.1956 23.1676L48.725 24.05ZM48.725 24H41.25V26H48.725V24ZM42.25 25V24.05H40.25V25H42.25ZM41.6972 24.9444C42.0009 24.7926 42.292 24.666 42.5707 24.5633L41.8793 22.6867C41.5247 22.8173 41.1658 22.9741 40.8028 23.1556L41.6972 24.9444ZM42.5707 24.5633C42.8426 24.4632 43.1424 24.375 43.4716 24.3001L43.0284 22.3499C42.6243 22.4417 42.2408 22.5535 41.8793 22.6867L42.5707 24.5633ZM44.25 23.325V12.875H42.25V23.325H44.25ZM44.2491 12.9177L44.3741 9.99269L42.3759 9.9073L42.2509 12.8323L44.2491 12.9177ZM43.375 8.95H43.175V10.95H43.375V8.95ZM42.2194 9.65528L41.3944 12.3303L43.3056 12.9197L44.1306 10.2447L42.2194 9.65528ZM41.4183 12.2617L36.5933 24.6367L38.4567 25.3633L43.2817 12.9883L41.4183 12.2617ZM37.525 24H36.375V26H37.525V24ZM37.3063 24.6358L32.5063 12.3608L30.6437 13.0892L35.4437 25.3642L37.3063 24.6358ZM32.5308 12.4309L31.6308 9.50591L29.7192 10.0941L30.6192 13.0191L32.5308 12.4309ZM30.675 8.8H30.45V10.8H30.675V8.8ZM29.45 9.80787L29.475 12.9829L31.475 12.9671L31.45 9.79212L29.45 9.80787ZM29.475 12.975V23.225H31.475V12.975H29.475ZM30.269 24.2036C30.5194 24.2563 30.8156 24.3462 31.1606 24.4812L31.8894 22.6188C31.4678 22.4538 31.0639 22.3271 30.681 22.2465L30.269 24.2036ZM31.1606 24.4812C31.5069 24.6167 31.8256 24.7654 32.1181 24.9262L33.0819 23.1738C32.7077 22.968 32.3098 22.7833 31.8894 22.6188L31.1606 24.4812ZM31.6 24.05V25H33.6V24.05H31.6ZM32.6 24H26.5V26H32.6V24ZM27.5 25V24.05H25.5V25H27.5ZM26.9472 24.9444C27.207 24.8145 27.5264 24.6589 27.9065 24.4771L27.0435 22.6729C26.6569 22.8578 26.3264 23.0188 26.0528 23.1556L26.9472 24.9444ZM27.8917 24.4841C28.2348 24.3268 28.5322 24.2309 28.7871 24.1823L28.4129 22.2177C27.9678 22.3024 27.5152 22.4565 27.0583 22.6659L27.8917 24.4841ZM29.6 23.2V9.175H27.6V23.2H29.6ZM28.7961 8.19442C28.4999 8.13517 28.1736 8.0521 27.8162 7.94333L27.2338 9.85667C27.6431 9.98123 28.0334 10.0815 28.4039 10.1556L28.7961 8.19442ZM27.8282 7.94707C27.5346 7.85366 27.2924 7.73928 27.0933 7.61043L26.0067 9.28957C26.3743 9.52739 26.782 9.713 27.2218 9.85293L27.8282 7.94707ZM27.55 8.45V7.5H25.55V8.45H27.55ZM26.55 8.5H33.325V6.5H26.55V8.5ZM32.389 7.85188L36.214 18.0269L38.086 17.3231L34.261 7.14812L32.389 7.85188ZM36.1927 17.9642L36.9177 20.3642L38.8323 19.7858L38.1073 17.3858L36.1927 17.9642ZM37.875 21.075H37.9V19.075H37.875V21.075ZM38.8562 20.3677L39.6062 17.9177L37.6938 17.3323L36.9438 19.7823L38.8562 20.3677ZM39.5832 17.9844L43.4832 7.85944L41.6168 7.14056L37.7168 17.2656L39.5832 17.9844ZM42.55 8.5H48.75V6.5H42.55V8.5ZM47.75 7.5V8.45H49.75V7.5H47.75ZM48.243 7.58807C48.0069 7.72695 47.7444 7.85522 47.4536 7.97152L48.1964 9.82848C48.5723 9.67811 48.9265 9.50638 49.257 9.31193L48.243 7.58807ZM47.4793 7.96166C47.2117 8.06025 46.9367 8.13785 46.6539 8.19442L47.0461 10.1556C47.43 10.0788 47.805 9.97308 48.1707 9.83834L47.4793 7.96166ZM45.85 9.175V23.35H47.85V9.175H45.85ZM46.6629 24.3323C46.9465 24.3864 47.2123 24.4665 47.4619 24.5716L48.2381 22.7284C47.8544 22.5668 47.4535 22.447 47.0371 22.3677L46.6629 24.3323ZM47.4786 24.5785C47.7865 24.7016 48.0438 24.82 48.2544 24.9324L49.1956 23.1676C48.9062 23.0133 48.5801 22.865 48.2214 22.7215L47.4786 24.5785ZM47.725 24.05V25H49.725V24.05H47.725ZM63.2422 22.325H62.2422V22.3562L62.2441 22.3874L63.2422 22.325ZM63.3172 23.175L62.3233 23.2854L62.4087 24.0538L63.1738 24.1647L63.3172 23.175ZM65.0422 23.425H66.0422V22.5595L65.1856 22.4353L65.0422 23.425ZM65.0422 24.3L65.4894 25.1944L66.0422 24.918V24.3H65.0422ZM64.2172 24.6L63.9424 23.6384L63.9298 23.6422L64.2172 24.6ZM63.1422 24.9L63.3638 25.8751L63.3793 25.8716L63.3946 25.8676L63.1422 24.9ZM62.0422 25.1L61.9071 24.1092L61.8851 24.1122L61.8633 24.1161L62.0422 25.1ZM61.0672 25.25V26.25H61.1258L61.184 26.2432L61.0672 25.25ZM60.2172 25.25L59.3001 25.6487L59.5615 26.25H60.2172V25.25ZM59.8422 22.7L60.8417 22.6697L60.8123 21.7H59.8422V22.7ZM59.7172 22.7V21.7H58.9364L58.747 22.4575L59.7172 22.7ZM59.2922 23.675L60.1242 24.2297L60.1311 24.2194L60.1377 24.209L59.2922 23.675ZM58.5172 24.5L59.1311 25.2894L59.1368 25.2849L58.5172 24.5ZM57.4422 25.075L57.1035 24.1341L57.4422 25.075ZM54.5172 25.05L54.8535 24.1083L54.5172 25.05ZM53.2922 24.35L53.943 23.5907L53.2922 24.35ZM52.4672 23.275L51.5592 23.6941L51.5624 23.7009L51.5657 23.7077L52.4672 23.275ZM52.5922 19.975L53.4549 20.4807L52.5922 19.975ZM53.9172 18.8L54.3644 19.6945L54.374 19.6896L53.9172 18.8ZM56.2672 18.1L56.1138 17.1118L56.1112 17.1122L56.2672 18.1ZM59.7672 17.775L59.8159 18.7738L60.6825 18.7315L60.7629 17.8676L59.7672 17.775ZM59.5922 14.625L58.6559 14.9761L59.5922 14.625ZM56.5422 13.875L56.1832 12.9417L55.7718 13.0999L55.6111 13.5103L56.5422 13.875ZM55.3672 16.875V17.875H56.0495L56.2983 17.2397L55.3672 16.875ZM54.2672 16.875L53.4351 17.4297L53.732 17.875H54.2672V16.875ZM53.8672 16.2L52.951 16.6008L52.9666 16.6364L52.9848 16.6706L53.8672 16.2ZM53.5172 15.375L52.5685 15.6912L52.5794 15.7239L52.5925 15.7557L53.5172 15.375ZM53.2422 14.475L52.266 14.6919L52.2717 14.7175L52.2787 14.7426L53.2422 14.475ZM53.0922 13.6L52.5275 12.7747L52.0284 13.1162L52.099 13.7168L53.0922 13.6ZM55.5422 12.575L55.7847 13.5451L55.5422 12.575ZM61.0422 12.525L60.7025 13.4656L60.7142 13.4698L60.726 13.4737L61.0422 12.525ZM62.4422 13.375L61.7022 14.0477L61.7183 14.0653L61.7351 14.0821L62.4422 13.375ZM63.1672 14.625L62.2032 14.8909V14.8909L63.1672 14.625ZM63.2922 18.9L62.2941 18.8389L62.2935 18.8486L62.2931 18.8584L63.2922 18.9ZM58.5172 23.1L58.9878 23.9824L58.5172 23.1ZM59.1422 22.625L58.4351 21.9179L58.4183 21.9347L58.4022 21.9523L59.1422 22.625ZM59.5422 22.025L58.6342 21.6059L58.6206 21.6356L58.6088 21.666L59.5422 22.025ZM59.7672 21.45L60.725 21.7373L60.7672 21.5968V21.45H59.7672ZM59.7672 18.95H60.7672V17.9285L59.7459 17.9502L59.7672 18.95ZM57.8422 19.1L57.6778 18.1136H57.6778L57.8422 19.1ZM56.6672 19.525L57.2104 20.3646L57.2274 20.3536L57.2439 20.342L56.6672 19.525ZM56.0672 20.25L55.1352 19.8876L55.1295 19.9023L55.1242 19.9172L56.0672 20.25ZM56.3672 22.775L55.6079 23.4258L56.3672 22.775ZM62.2422 21.375C62.2422 21.3757 62.2422 21.3764 62.2422 21.3771C62.2422 21.3779 62.2422 21.3786 62.2422 21.3793C62.2422 21.38 62.2422 21.3807 62.2422 21.3814C62.2422 21.3822 62.2422 21.3829 62.2422 21.3836C62.2422 21.3843 62.2422 21.385 62.2422 21.3857C62.2422 21.3864 62.2422 21.3872 62.2422 21.3879C62.2422 21.3886 62.2422 21.3893 62.2422 21.39C62.2422 21.3907 62.2422 21.3914 62.2422 21.3922C62.2422 21.3929 62.2422 21.3936 62.2422 21.3943C62.2422 21.395 62.2422 21.3957 62.2422 21.3964C62.2422 21.3971 62.2422 21.3979 62.2422 21.3986C62.2422 21.3993 62.2422 21.4 62.2422 21.4007C62.2422 21.4014 62.2422 21.4021 62.2422 21.4028C62.2422 21.4035 62.2422 21.4043 62.2422 21.405C62.2422 21.4057 62.2422 21.4064 62.2422 21.4071C62.2422 21.4078 62.2422 21.4085 62.2422 21.4092C62.2422 21.4099 62.2422 21.4106 62.2422 21.4114C62.2422 21.4121 62.2422 21.4128 62.2422 21.4135C62.2422 21.4142 62.2422 21.4149 62.2422 21.4156C62.2422 21.4163 62.2422 21.417 62.2422 21.4177C62.2422 21.4184 62.2422 21.4192 62.2422 21.4199C62.2422 21.4206 62.2422 21.4213 62.2422 21.422C62.2422 21.4227 62.2422 21.4234 62.2422 21.4241C62.2422 21.4248 62.2422 21.4255 62.2422 21.4262C62.2422 21.4269 62.2422 21.4276 62.2422 21.4284C62.2422 21.4291 62.2422 21.4298 62.2422 21.4305C62.2422 21.4312 62.2422 21.4319 62.2422 21.4326C62.2422 21.4333 62.2422 21.434 62.2422 21.4347C62.2422 21.4354 62.2422 21.4361 62.2422 21.4368C62.2422 21.4375 62.2422 21.4382 62.2422 21.4389C62.2422 21.4396 62.2422 21.4403 62.2422 21.4411C62.2422 21.4418 62.2422 21.4425 62.2422 21.4432C62.2422 21.4439 62.2422 21.4446 62.2422 21.4453C62.2422 21.446 62.2422 21.4467 62.2422 21.4474C62.2422 21.4481 62.2422 21.4488 62.2422 21.4495C62.2422 21.4502 62.2422 21.4509 62.2422 21.4516C62.2422 21.4523 62.2422 21.453 62.2422 21.4537C62.2422 21.4544 62.2422 21.4551 62.2422 21.4558C62.2422 21.4565 62.2422 21.4572 62.2422 21.4579C62.2422 21.4586 62.2422 21.4593 62.2422 21.46C62.2422 21.4607 62.2422 21.4614 62.2422 21.4621C62.2422 21.4628 62.2422 21.4635 62.2422 21.4642C62.2422 21.4649 62.2422 21.4656 62.2422 21.4663C62.2422 21.467 62.2422 21.4677 62.2422 21.4684C62.2422 21.4691 62.2422 21.4698 62.2422 21.4705C62.2422 21.4712 62.2422 21.4719 62.2422 21.4726C62.2422 21.4733 62.2422 21.474 62.2422 21.4747C62.2422 21.4754 62.2422 21.4761 62.2422 21.4768C62.2422 21.4775 62.2422 21.4782 62.2422 21.4789C62.2422 21.4796 62.2422 21.4803 62.2422 21.481C62.2422 21.4817 62.2422 21.4824 62.2422 21.4831C62.2422 21.4838 62.2422 21.4845 62.2422 21.4852C62.2422 21.4859 62.2422 21.4866 62.2422 21.4873C62.2422 21.488 62.2422 21.4887 62.2422 21.4893C62.2422 21.49 62.2422 21.4907 62.2422 21.4914C62.2422 21.4921 62.2422 21.4928 62.2422 21.4935C62.2422 21.4942 62.2422 21.4949 62.2422 21.4956C62.2422 21.4963 62.2422 21.497 62.2422 21.4977C62.2422 21.4984 62.2422 21.4991 62.2422 21.4998C62.2422 21.5005 62.2422 21.5012 62.2422 21.5018C62.2422 21.5025 62.2422 21.5032 62.2422 21.5039C62.2422 21.5046 62.2422 21.5053 62.2422 21.506C62.2422 21.5067 62.2422 21.5074 62.2422 21.5081C62.2422 21.5088 62.2422 21.5095 62.2422 21.5102C62.2422 21.5108 62.2422 21.5115 62.2422 21.5122C62.2422 21.5129 62.2422 21.5136 62.2422 21.5143C62.2422 21.515 62.2422 21.5157 62.2422 21.5164C62.2422 21.5171 62.2422 21.5178 62.2422 21.5184C62.2422 21.5191 62.2422 21.5198 62.2422 21.5205C62.2422 21.5212 62.2422 21.5219 62.2422 21.5226C62.2422 21.5233 62.2422 21.524 62.2422 21.5247C62.2422 21.5253 62.2422 21.526 62.2422 21.5267C62.2422 21.5274 62.2422 21.5281 62.2422 21.5288C62.2422 21.5295 62.2422 21.5302 62.2422 21.5309C62.2422 21.5315 62.2422 21.5322 62.2422 21.5329C62.2422 21.5336 62.2422 21.5343 62.2422 21.535C62.2422 21.5357 62.2422 21.5364 62.2422 21.537C62.2422 21.5377 62.2422 21.5384 62.2422 21.5391C62.2422 21.5398 62.2422 21.5405 62.2422 21.5412C62.2422 21.5418 62.2422 21.5425 62.2422 21.5432C62.2422 21.5439 62.2422 21.5446 62.2422 21.5453C62.2422 21.546 62.2422 21.5466 62.2422 21.5473C62.2422 21.548 62.2422 21.5487 62.2422 21.5494C62.2422 21.5501 62.2422 21.5507 62.2422 21.5514C62.2422 21.5521 62.2422 21.5528 62.2422 21.5535C62.2422 21.5542 62.2422 21.5548 62.2422 21.5555C62.2422 21.5562 62.2422 21.5569 62.2422 21.5576C62.2422 21.5583 62.2422 21.5589 62.2422 21.5596C62.2422 21.5603 62.2422 21.561 62.2422 21.5617C62.2422 21.5624 62.2422 21.563 62.2422 21.5637C62.2422 21.5644 62.2422 21.5651 62.2422 21.5658C62.2422 21.5665 62.2422 21.5671 62.2422 21.5678C62.2422 21.5685 62.2422 21.5692 62.2422 21.5699C62.2422 21.5705 62.2422 21.5712 62.2422 21.5719C62.2422 21.5726 62.2422 21.5733 62.2422 21.5739C62.2422 21.5746 62.2422 21.5753 62.2422 21.576C62.2422 21.5767 62.2422 21.5773 62.2422 21.578C62.2422 21.5787 62.2422 21.5794 62.2422 21.5801C62.2422 21.5807 62.2422 21.5814 62.2422 21.5821C62.2422 21.5828 62.2422 21.5834 62.2422 21.5841C62.2422 21.5848 62.2422 21.5855 62.2422 21.5862C62.2422 21.5868 62.2422 21.5875 62.2422 21.5882C62.2422 21.5889 62.2422 21.5895 62.2422 21.5902C62.2422 21.5909 62.2422 21.5916 62.2422 21.5922C62.2422 21.5929 62.2422 21.5936 62.2422 21.5943C62.2422 21.595 62.2422 21.5956 62.2422 21.5963C62.2422 21.597 62.2422 21.5977 62.2422 21.5983C62.2422 21.599 62.2422 21.5997 62.2422 21.6004C62.2422 21.601 62.2422 21.6017 62.2422 21.6024C62.2422 21.6031 62.2422 21.6037 62.2422 21.6044C62.2422 21.6051 62.2422 21.6058 62.2422 21.6064C62.2422 21.6071 62.2422 21.6078 62.2422 21.6084C62.2422 21.6091 62.2422 21.6098 62.2422 21.6105C62.2422 21.6111 62.2422 21.6118 62.2422 21.6125C62.2422 21.6132 62.2422 21.6138 62.2422 21.6145C62.2422 21.6152 62.2422 21.6158 62.2422 21.6165C62.2422 21.6172 62.2422 21.6179 62.2422 21.6185C62.2422 21.6192 62.2422 21.6199 62.2422 21.6205C62.2422 21.6212 62.2422 21.6219 62.2422 21.6226C62.2422 21.6232 62.2422 21.6239 62.2422 21.6246C62.2422 21.6252 62.2422 21.6259 62.2422 21.6266C62.2422 21.6273 62.2422 21.6279 62.2422 21.6286C62.2422 21.6293 62.2422 21.6299 62.2422 21.6306C62.2422 21.6313 62.2422 21.6319 62.2422 21.6326C62.2422 21.6333 62.2422 21.6339 62.2422 21.6346C62.2422 21.6353 62.2422 21.636 62.2422 21.6366C62.2422 21.6373 62.2422 21.638 62.2422 21.6386C62.2422 21.6393 62.2422 21.64 62.2422 21.6406C62.2422 21.6413 62.2422 21.642 62.2422 21.6426C62.2422 21.6433 62.2422 21.644 62.2422 21.6446C62.2422 21.6453 62.2422 21.646 62.2422 21.6466C62.2422 21.6473 62.2422 21.648 62.2422 21.6486C62.2422 21.6493 62.2422 21.65 62.2422 21.6506C62.2422 21.6513 62.2422 21.652 62.2422 21.6526C62.2422 21.6533 62.2422 21.6539 62.2422 21.6546C62.2422 21.6553 62.2422 21.6559 62.2422 21.6566C62.2422 21.6573 62.2422 21.6579 62.2422 21.6586C62.2422 21.6593 62.2422 21.6599 62.2422 21.6606C62.2422 21.6613 62.2422 21.6619 62.2422 21.6626C62.2422 21.6632 62.2422 21.6639 62.2422 21.6646C62.2422 21.6652 62.2422 21.6659 62.2422 21.6666C62.2422 21.6672 62.2422 21.6679 62.2422 21.6685C62.2422 21.6692 62.2422 21.6699 62.2422 21.6705C62.2422 21.6712 62.2422 21.6718 62.2422 21.6725C62.2422 21.6732 62.2422 21.6738 62.2422 21.6745C62.2422 21.6752 62.2422 21.6758 62.2422 21.6765C62.2422 21.6771 62.2422 21.6778 62.2422 21.6785C62.2422 21.6791 62.2422 21.6798 62.2422 21.6804C62.2422 21.6811 62.2422 21.6818 62.2422 21.6824C62.2422 21.6831 62.2422 21.6837 62.2422 21.6844C62.2422 21.685 62.2422 21.6857 62.2422 21.6864C62.2422 21.687 62.2422 21.6877 62.2422 21.6883C62.2422 21.689 62.2422 21.6897 62.2422 21.6903C62.2422 21.691 62.2422 21.6916 62.2422 21.6923C62.2422 21.6929 62.2422 21.6936 62.2422 21.6943C62.2422 21.6949 62.2422 21.6956 62.2422 21.6962C62.2422 21.6969 62.2422 21.6975 62.2422 21.6982C62.2422 21.6989 62.2422 21.6995 62.2422 21.7002C62.2422 21.7008 62.2422 21.7015 62.2422 21.7021C62.2422 21.7028 62.2422 21.7034 62.2422 21.7041C62.2422 21.7048 62.2422 21.7054 62.2422 21.7061C62.2422 21.7067 62.2422 21.7074 62.2422 21.708C62.2422 21.7087 62.2422 21.7093 62.2422 21.71C62.2422 21.7106 62.2422 21.7113 62.2422 21.712C62.2422 21.7126 62.2422 21.7133 62.2422 21.7139C62.2422 21.7146 62.2422 21.7152 62.2422 21.7159C62.2422 21.7165 62.2422 21.7172 62.2422 21.7178C62.2422 21.7185 62.2422 21.7191 62.2422 21.7198C62.2422 21.7204 62.2422 21.7211 62.2422 21.7217C62.2422 21.7224 62.2422 21.723 62.2422 21.7237C62.2422 21.7243 62.2422 21.725 62.2422 21.7257C62.2422 21.7263 62.2422 21.727 62.2422 21.7276C62.2422 21.7283 62.2422 21.7289 62.2422 21.7296C62.2422 21.7302 62.2422 21.7309 62.2422 21.7315C62.2422 21.7322 62.2422 21.7328 62.2422 21.7335C62.2422 21.7341 62.2422 21.7348 62.2422 21.7354C62.2422 21.736 62.2422 21.7367 62.2422 21.7373C62.2422 21.738 62.2422 21.7386 62.2422 21.7393C62.2422 21.7399 62.2422 21.7406 62.2422 21.7412C62.2422 21.7419 62.2422 21.7425 62.2422 21.7432C62.2422 21.7438 62.2422 21.7445 62.2422 21.7451C62.2422 21.7458 62.2422 21.7464 62.2422 21.7471C62.2422 21.7477 62.2422 21.7484 62.2422 21.749C62.2422 21.7496 62.2422 21.7503 62.2422 21.7509C62.2422 21.7516 62.2422 21.7522 62.2422 21.7529C62.2422 21.7535 62.2422 21.7542 62.2422 21.7548C62.2422 21.7555 62.2422 21.7561 62.2422 21.7567C62.2422 21.7574 62.2422 21.758 62.2422 21.7587C62.2422 21.7593 62.2422 21.76 62.2422 21.7606C62.2422 21.7613 62.2422 21.7619 62.2422 21.7625C62.2422 21.7632 62.2422 21.7638 62.2422 21.7645C62.2422 21.7651 62.2422 21.7658 62.2422 21.7664C62.2422 21.767 62.2422 21.7677 62.2422 21.7683C62.2422 21.769 62.2422 21.7696 62.2422 21.7703C62.2422 21.7709 62.2422 21.7715 62.2422 21.7722C62.2422 21.7728 62.2422 21.7735 62.2422 21.7741C62.2422 21.7748 62.2422 21.7754 62.2422 21.776C62.2422 21.7767 62.2422 21.7773 62.2422 21.778C62.2422 21.7786 62.2422 21.7792 62.2422 21.7799C62.2422 21.7805 62.2422 21.7812 62.2422 21.7818C62.2422 21.7824 62.2422 21.7831 62.2422 21.7837C62.2422 21.7844 62.2422 21.785 62.2422 21.7856C62.2422 21.7863 62.2422 21.7869 62.2422 21.7876C62.2422 21.7882 62.2422 21.7888 62.2422 21.7895C62.2422 21.7901 62.2422 21.7907 62.2422 21.7914C62.2422 21.792 62.2422 21.7927 62.2422 21.7933C62.2422 21.7939 62.2422 21.7946 62.2422 21.7952C62.2422 21.7958 62.2422 21.7965 62.2422 21.7971C62.2422 21.7978 62.2422 21.7984 62.2422 21.799C62.2422 21.7997 62.2422 21.8003 62.2422 21.8009C62.2422 21.8016 62.2422 21.8022 62.2422 21.8028C62.2422 21.8035 62.2422 21.8041 62.2422 21.8048C62.2422 21.8054 62.2422 21.806 62.2422 21.8067C62.2422 21.8073 62.2422 21.8079 62.2422 21.8086C62.2422 21.8092 62.2422 21.8098 62.2422 21.8105C62.2422 21.8111 62.2422 21.8117 62.2422 21.8124C62.2422 21.813 62.2422 21.8136 62.2422 21.8143C62.2422 21.8149 62.2422 21.8155 62.2422 21.8162C62.2422 21.8168 62.2422 21.8174 62.2422 21.8181C62.2422 21.8187 62.2422 21.8193 62.2422 21.82C62.2422 21.8206 62.2422 21.8212 62.2422 21.8219C62.2422 21.8225 62.2422 21.8231 62.2422 21.8238C62.2422 21.8244 62.2422 21.825 62.2422 21.8256C62.2422 21.8263 62.2422 21.8269 62.2422 21.8275C62.2422 21.8282 62.2422 21.8288 62.2422 21.8294C62.2422 21.8301 62.2422 21.8307 62.2422 21.8313C62.2422 21.832 62.2422 21.8326 62.2422 21.8332C62.2422 21.8338 62.2422 21.8345 62.2422 21.8351C62.2422 21.8357 62.2422 21.8364 62.2422 21.837C62.2422 21.8376 62.2422 21.8382 62.2422 21.8389C62.2422 21.8395 62.2422 21.8401 62.2422 21.8408C62.2422 21.8414 62.2422 21.842 62.2422 21.8426C62.2422 21.8433 62.2422 21.8439 62.2422 21.8445C62.2422 21.8451 62.2422 21.8458 62.2422 21.8464C62.2422 21.847 62.2422 21.8477 62.2422 21.8483C62.2422 21.8489 62.2422 21.8495 62.2422 21.8502C62.2422 21.8508 62.2422 21.8514 62.2422 21.852C62.2422 21.8527 62.2422 21.8533 62.2422 21.8539C62.2422 21.8545 62.2422 21.8552 62.2422 21.8558C62.2422 21.8564 62.2422 21.857 62.2422 21.8577C62.2422 21.8583 62.2422 21.8589 62.2422 21.8595C62.2422 21.8602 62.2422 21.8608 62.2422 21.8614C62.2422 21.862 62.2422 21.8627 62.2422 21.8633C62.2422 21.8639 62.2422 21.8645 62.2422 21.8652C62.2422 21.8658 62.2422 21.8664 62.2422 21.867C62.2422 21.8676 62.2422 21.8683 62.2422 21.8689C62.2422 21.8695 62.2422 21.8701 62.2422 21.8708C62.2422 21.8714 62.2422 21.872 62.2422 21.8726C62.2422 21.8732 62.2422 21.8739 62.2422 21.8745C62.2422 21.8751 62.2422 21.8757 62.2422 21.8763C62.2422 21.877 62.2422 21.8776 62.2422 21.8782C62.2422 21.8788 62.2422 21.8794 62.2422 21.8801C62.2422 21.8807 62.2422 21.8813 62.2422 21.8819C62.2422 21.8825 62.2422 21.8832 62.2422 21.8838C62.2422 21.8844 62.2422 21.885 62.2422 21.8856C62.2422 21.8863 62.2422 21.8869 62.2422 21.8875C62.2422 21.8881 62.2422 21.8887 62.2422 21.8894C62.2422 21.89 62.2422 21.8906 62.2422 21.8912C62.2422 21.8918 62.2422 21.8924 62.2422 21.8931C62.2422 21.8937 62.2422 21.8943 62.2422 21.8949C62.2422 21.8955 62.2422 21.8961 62.2422 21.8968C62.2422 21.8974 62.2422 21.898 62.2422 21.8986C62.2422 21.8992 62.2422 21.8998 62.2422 21.9005C62.2422 21.9011 62.2422 21.9017 62.2422 21.9023C62.2422 21.9029 62.2422 21.9035 62.2422 21.9042C62.2422 21.9048 62.2422 21.9054 62.2422 21.906C62.2422 21.9066 62.2422 21.9072 62.2422 21.9078C62.2422 21.9085 62.2422 21.9091 62.2422 21.9097C62.2422 21.9103 62.2422 21.9109 62.2422 21.9115C62.2422 21.9121 62.2422 21.9128 62.2422 21.9134C62.2422 21.914 62.2422 21.9146 62.2422 21.9152C62.2422 21.9158 62.2422 21.9164 62.2422 21.917C62.2422 21.9177 62.2422 21.9183 62.2422 21.9189C62.2422 21.9195 62.2422 21.9201 62.2422 21.9207C62.2422 21.9213 62.2422 21.9219 62.2422 21.9225C62.2422 21.9232 62.2422 21.9238 62.2422 21.9244C62.2422 21.925 62.2422 21.9256 62.2422 21.9262C62.2422 21.9268 62.2422 21.9274 62.2422 21.928C62.2422 21.9287 62.2422 21.9293 62.2422 21.9299C62.2422 21.9305 62.2422 21.9311 62.2422 21.9317C62.2422 21.9323 62.2422 21.9329 62.2422 21.9335C62.2422 21.9341 62.2422 21.9347 62.2422 21.9354C62.2422 21.936 62.2422 21.9366 62.2422 21.9372C62.2422 21.9378 62.2422 21.9384 62.2422 21.939C62.2422 21.9396 62.2422 21.9402 62.2422 21.9408C62.2422 21.9414 62.2422 21.942 62.2422 21.9426C62.2422 21.9433 62.2422 21.9439 62.2422 21.9445C62.2422 21.9451 62.2422 21.9457 62.2422 21.9463C62.2422 21.9469 62.2422 21.9475 62.2422 21.9481C62.2422 21.9487 62.2422 21.9493 62.2422 21.9499C62.2422 21.9505 62.2422 21.9511 62.2422 21.9517C62.2422 21.9523 62.2422 21.9529 62.2422 21.9536C62.2422 21.9542 62.2422 21.9548 62.2422 21.9554C62.2422 21.956 62.2422 21.9566 62.2422 21.9572C62.2422 21.9578 62.2422 21.9584 62.2422 21.959C62.2422 21.9596 62.2422 21.9602 62.2422 21.9608C62.2422 21.9614 62.2422 21.962 62.2422 21.9626C62.2422 21.9632 62.2422 21.9638 62.2422 21.9644C62.2422 21.965 62.2422 21.9656 62.2422 21.9662C62.2422 21.9668 62.2422 21.9674 62.2422 21.968C62.2422 21.9686 62.2422 21.9692 62.2422 21.9698C62.2422 21.9704 62.2422 21.971 62.2422 21.9716C62.2422 21.9722 62.2422 21.9728 62.2422 21.9734C62.2422 21.974 62.2422 21.9746 62.2422 21.9752C62.2422 21.9758 62.2422 21.9764 62.2422 21.977C62.2422 21.9776 62.2422 21.9782 62.2422 21.9788C62.2422 21.9794 62.2422 21.98 62.2422 21.9806C62.2422 21.9812 62.2422 21.9818 62.2422 21.9824C62.2422 21.983 62.2422 21.9836 62.2422 21.9842C62.2422 21.9848 62.2422 21.9854 62.2422 21.986C62.2422 21.9866 62.2422 21.9872 62.2422 21.9878C62.2422 21.9884 62.2422 21.989 62.2422 21.9896C62.2422 21.9902 62.2422 21.9908 62.2422 21.9914C62.2422 21.992 62.2422 21.9926 62.2422 21.9932C62.2422 21.9938 62.2422 21.9944 62.2422 21.995C62.2422 21.9956 62.2422 21.9962 62.2422 21.9968C62.2422 21.9974 62.2422 21.998 62.2422 21.9986C62.2422 21.9991 62.2422 21.9997 62.2422 22.0003C62.2422 22.0009 62.2422 22.0015 62.2422 22.0021C62.2422 22.0027 62.2422 22.0033 62.2422 22.0039C62.2422 22.0045 62.2422 22.0051 62.2422 22.0057C62.2422 22.0063 62.2422 22.0069 62.2422 22.0075C62.2422 22.0081 62.2422 22.0087 62.2422 22.0092C62.2422 22.0098 62.2422 22.0104 62.2422 22.011C62.2422 22.0116 62.2422 22.0122 62.2422 22.0128C62.2422 22.0134 62.2422 22.014 62.2422 22.0146C62.2422 22.0152 62.2422 22.0158 62.2422 22.0164C62.2422 22.0169 62.2422 22.0175 62.2422 22.0181C62.2422 22.0187 62.2422 22.0193 62.2422 22.0199C62.2422 22.0205 62.2422 22.0211 62.2422 22.0217C62.2422 22.0223 62.2422 22.0229 62.2422 22.0234C62.2422 22.024 62.2422 22.0246 62.2422 22.0252C62.2422 22.0258 62.2422 22.0264 62.2422 22.027C62.2422 22.0276 62.2422 22.0282 62.2422 22.0287C62.2422 22.0293 62.2422 22.0299 62.2422 22.0305C62.2422 22.0311 62.2422 22.0317 62.2422 22.0323C62.2422 22.0329 62.2422 22.0335 62.2422 22.034C62.2422 22.0346 62.2422 22.0352 62.2422 22.0358C62.2422 22.0364 62.2422 22.037 62.2422 22.0376C62.2422 22.0381 62.2422 22.0387 62.2422 22.0393C62.2422 22.0399 62.2422 22.0405 62.2422 22.0411C62.2422 22.0417 62.2422 22.0423 62.2422 22.0428C62.2422 22.0434 62.2422 22.044 62.2422 22.0446C62.2422 22.0452 62.2422 22.0458 62.2422 22.0464C62.2422 22.0469 62.2422 22.0475 62.2422 22.0481C62.2422 22.0487 62.2422 22.0493 62.2422 22.0499C62.2422 22.0504 62.2422 22.051 62.2422 22.0516C62.2422 22.0522 62.2422 22.0528 62.2422 22.0534C62.2422 22.0539 62.2422 22.0545 62.2422 22.0551C62.2422 22.0557 62.2422 22.0563 62.2422 22.0569C62.2422 22.0574 62.2422 22.058 62.2422 22.0586C62.2422 22.0592 62.2422 22.0598 62.2422 22.0604C62.2422 22.0609 62.2422 22.0615 62.2422 22.0621C62.2422 22.0627 62.2422 22.0633 62.2422 22.0638C62.2422 22.0644 62.2422 22.065 62.2422 22.0656C62.2422 22.0662 62.2422 22.0667 62.2422 22.0673C62.2422 22.0679 62.2422 22.0685 62.2422 22.0691C62.2422 22.0696 62.2422 22.0702 62.2422 22.0708C62.2422 22.0714 62.2422 22.072 62.2422 22.0725C62.2422 22.0731 62.2422 22.0737 62.2422 22.0743C62.2422 22.0749 62.2422 22.0754 62.2422 22.076C62.2422 22.0766 62.2422 22.0772 62.2422 22.0778C62.2422 22.0783 62.2422 22.0789 62.2422 22.0795C62.2422 22.0801 62.2422 22.0806 62.2422 22.0812C62.2422 22.0818 62.2422 22.0824 62.2422 22.0829C62.2422 22.0835 62.2422 22.0841 62.2422 22.0847C62.2422 22.0853 62.2422 22.0858 62.2422 22.0864C62.2422 22.087 62.2422 22.0876 62.2422 22.0881C62.2422 22.0887 62.2422 22.0893 62.2422 22.0899C62.2422 22.0904 62.2422 22.091 62.2422 22.0916C62.2422 22.0922 62.2422 22.0927 62.2422 22.0933C62.2422 22.0939 62.2422 22.0945 62.2422 22.095C62.2422 22.0956 62.2422 22.0962 62.2422 22.0968C62.2422 22.0973 62.2422 22.0979 62.2422 22.0985C62.2422 22.0991 62.2422 22.0996 62.2422 22.1002C62.2422 22.1008 62.2422 22.1013 62.2422 22.1019C62.2422 22.1025 62.2422 22.1031 62.2422 22.1036C62.2422 22.1042 62.2422 22.1048 62.2422 22.1054C62.2422 22.1059 62.2422 22.1065 62.2422 22.1071C62.2422 22.1076 62.2422 22.1082 62.2422 22.1088C62.2422 22.1094 62.2422 22.1099 62.2422 22.1105C62.2422 22.1111 62.2422 22.1116 62.2422 22.1122C62.2422 22.1128 62.2422 22.1133 62.2422 22.1139C62.2422 22.1145 62.2422 22.1151 62.2422 22.1156C62.2422 22.1162 62.2422 22.1168 62.2422 22.1173C62.2422 22.1179 62.2422 22.1185 62.2422 22.119C62.2422 22.1196 62.2422 22.1202 62.2422 22.1207C62.2422 22.1213 62.2422 22.1219 62.2422 22.1225C62.2422 22.123 62.2422 22.1236 62.2422 22.1242C62.2422 22.1247 62.2422 22.1253 62.2422 22.1259C62.2422 22.1264 62.2422 22.127 62.2422 22.1276C62.2422 22.1281 62.2422 22.1287 62.2422 22.1293C62.2422 22.1298 62.2422 22.1304 62.2422 22.131C62.2422 22.1315 62.2422 22.1321 62.2422 22.1327C62.2422 22.1332 62.2422 22.1338 62.2422 22.1344C62.2422 22.1349 62.2422 22.1355 62.2422 22.1361C62.2422 22.1366 62.2422 22.1372 62.2422 22.1377C62.2422 22.1383 62.2422 22.1389 62.2422 22.1394C62.2422 22.14 62.2422 22.1406 62.2422 22.1411C62.2422 22.1417 62.2422 22.1423 62.2422 22.1428C62.2422 22.1434 62.2422 22.1439 62.2422 22.1445C62.2422 22.1451 62.2422 22.1456 62.2422 22.1462C62.2422 22.1468 62.2422 22.1473 62.2422 22.1479C62.2422 22.1485 62.2422 22.149 62.2422 22.1496C62.2422 22.1501 62.2422 22.1507 62.2422 22.1513C62.2422 22.1518 62.2422 22.1524 62.2422 22.1529C62.2422 22.1535 62.2422 22.1541 62.2422 22.1546C62.2422 22.1552 62.2422 22.1558 62.2422 22.1563C62.2422 22.1569 62.2422 22.1574 62.2422 22.158C62.2422 22.1586 62.2422 22.1591 62.2422 22.1597C62.2422 22.1602 62.2422 22.1608 62.2422 22.1614C62.2422 22.1619 62.2422 22.1625 62.2422 22.163C62.2422 22.1636 62.2422 22.1641 62.2422 22.1647C62.2422 22.1653 62.2422 22.1658 62.2422 22.1664C62.2422 22.1669 62.2422 22.1675 62.2422 22.1681C62.2422 22.1686 62.2422 22.1692 62.2422 22.1697C62.2422 22.1703 62.2422 22.1708 62.2422 22.1714C62.2422 22.172 62.2422 22.1725 62.2422 22.1731C62.2422 22.1736 62.2422 22.1742 62.2422 22.1747C62.2422 22.1753 62.2422 22.1758 62.2422 22.1764C62.2422 22.177 62.2422 22.1775 62.2422 22.1781C62.2422 22.1786 62.2422 22.1792 62.2422 22.1797C62.2422 22.1803 62.2422 22.1809 62.2422 22.1814C62.2422 22.182 62.2422 22.1825 62.2422 22.1831C62.2422 22.1836 62.2422 22.1842 62.2422 22.1847C62.2422 22.1853 62.2422 22.1858 62.2422 22.1864C62.2422 22.1869 62.2422 22.1875 62.2422 22.1881C62.2422 22.1886 62.2422 22.1892 62.2422 22.1897C62.2422 22.1903 62.2422 22.1908 62.2422 22.1914C62.2422 22.1919 62.2422 22.1925 62.2422 22.193C62.2422 22.1936 62.2422 22.1941 62.2422 22.1947C62.2422 22.1952 62.2422 22.1958 62.2422 22.1963C62.2422 22.1969 62.2422 22.1974 62.2422 22.198C62.2422 22.1985 62.2422 22.1991 62.2422 22.1996C62.2422 22.2002 62.2422 22.2007 62.2422 22.2013C62.2422 22.2018 62.2422 22.2024 62.2422 22.2029C62.2422 22.2035 62.2422 22.204 62.2422 22.2046C62.2422 22.2051 62.2422 22.2057 62.2422 22.2062C62.2422 22.2068 62.2422 22.2073 62.2422 22.2079C62.2422 22.2084 62.2422 22.209 62.2422 22.2095C62.2422 22.2101 62.2422 22.2106 62.2422 22.2112C62.2422 22.2117 62.2422 22.2123 62.2422 22.2128C62.2422 22.2134 62.2422 22.2139 62.2422 22.2145C62.2422 22.215 62.2422 22.2156 62.2422 22.2161C62.2422 22.2167 62.2422 22.2172 62.2422 22.2177C62.2422 22.2183 62.2422 22.2188 62.2422 22.2194C62.2422 22.2199 62.2422 22.2205 62.2422 22.221C62.2422 22.2216 62.2422 22.2221 62.2422 22.2227C62.2422 22.2232 62.2422 22.2237 62.2422 22.2243C62.2422 22.2248 62.2422 22.2254 62.2422 22.2259C62.2422 22.2265 62.2422 22.227 62.2422 22.2276C62.2422 22.2281 62.2422 22.2286 62.2422 22.2292C62.2422 22.2297 62.2422 22.2303 62.2422 22.2308C62.2422 22.2314 62.2422 22.2319 62.2422 22.2325C62.2422 22.233 62.2422 22.2335 62.2422 22.2341C62.2422 22.2346 62.2422 22.2352 62.2422 22.2357C62.2422 22.2362 62.2422 22.2368 62.2422 22.2373C62.2422 22.2379 62.2422 22.2384 62.2422 22.239C62.2422 22.2395 62.2422 22.24 62.2422 22.2406C62.2422 22.2411 62.2422 22.2417 62.2422 22.2422C62.2422 22.2427 62.2422 22.2433 62.2422 22.2438C62.2422 22.2444 62.2422 22.2449 62.2422 22.2454C62.2422 22.246 62.2422 22.2465 62.2422 22.2471C62.2422 22.2476 62.2422 22.2481 62.2422 22.2487C62.2422 22.2492 62.2422 22.2498 62.2422 22.2503C62.2422 22.2508 62.2422 22.2514 62.2422 22.2519C62.2422 22.2525 62.2422 22.253 62.2422 22.2535C62.2422 22.2541 62.2422 22.2546 62.2422 22.2551C62.2422 22.2557 62.2422 22.2562 62.2422 22.2568C62.2422 22.2573 62.2422 22.2578 62.2422 22.2584C62.2422 22.2589 62.2422 22.2594 62.2422 22.26C62.2422 22.2605 62.2422 22.261 62.2422 22.2616C62.2422 22.2621 62.2422 22.2627 62.2422 22.2632C62.2422 22.2637 62.2422 22.2643 62.2422 22.2648C62.2422 22.2653 62.2422 22.2659 62.2422 22.2664C62.2422 22.2669 62.2422 22.2675 62.2422 22.268C62.2422 22.2685 62.2422 22.2691 62.2422 22.2696C62.2422 22.2701 62.2422 22.2707 62.2422 22.2712C62.2422 22.2717 62.2422 22.2723 62.2422 22.2728C62.2422 22.2733 62.2422 22.2739 62.2422 22.2744C62.2422 22.2749 62.2422 22.2755 62.2422 22.276C62.2422 22.2765 62.2422 22.2771 62.2422 22.2776C62.2422 22.2781 62.2422 22.2787 62.2422 22.2792C62.2422 22.2797 62.2422 22.2803 62.2422 22.2808C62.2422 22.2813 62.2422 22.2819 62.2422 22.2824C62.2422 22.2829 62.2422 22.2835 62.2422 22.284C62.2422 22.2845 62.2422 22.285 62.2422 22.2856C62.2422 22.2861 62.2422 22.2866 62.2422 22.2872C62.2422 22.2877 62.2422 22.2882 62.2422 22.2888C62.2422 22.2893 62.2422 22.2898 62.2422 22.2903C62.2422 22.2909 62.2422 22.2914 62.2422 22.2919C62.2422 22.2925 62.2422 22.293 62.2422 22.2935C62.2422 22.2941 62.2422 22.2946 62.2422 22.2951C62.2422 22.2956 62.2422 22.2962 62.2422 22.2967C62.2422 22.2972 62.2422 22.2977 62.2422 22.2983C62.2422 22.2988 62.2422 22.2993 62.2422 22.2999C62.2422 22.3004 62.2422 22.3009 62.2422 22.3014C62.2422 22.302 62.2422 22.3025 62.2422 22.303C62.2422 22.3035 62.2422 22.3041 62.2422 22.3046C62.2422 22.3051 62.2422 22.3056 62.2422 22.3062C62.2422 22.3067 62.2422 22.3072 62.2422 22.3077C62.2422 22.3083 62.2422 22.3088 62.2422 22.3093C62.2422 22.3098 62.2422 22.3104 62.2422 22.3109C62.2422 22.3114 62.2422 22.3119 62.2422 22.3125C62.2422 22.313 62.2422 22.3135 62.2422 22.314C62.2422 22.3146 62.2422 22.3151 62.2422 22.3156C62.2422 22.3161 62.2422 22.3167 62.2422 22.3172C62.2422 22.3177 62.2422 22.3182 62.2422 22.3187C62.2422 22.3193 62.2422 22.3198 62.2422 22.3203C62.2422 22.3208 62.2422 22.3214 62.2422 22.3219C62.2422 22.3224 62.2422 22.3229 62.2422 22.3234C62.2422 22.324 62.2422 22.3245 62.2422 22.325H64.2422C64.2422 22.3245 64.2422 22.324 64.2422 22.3234C64.2422 22.3229 64.2422 22.3224 64.2422 22.3219C64.2422 22.3214 64.2422 22.3208 64.2422 22.3203C64.2422 22.3198 64.2422 22.3193 64.2422 22.3187C64.2422 22.3182 64.2422 22.3177 64.2422 22.3172C64.2422 22.3167 64.2422 22.3161 64.2422 22.3156C64.2422 22.3151 64.2422 22.3146 64.2422 22.314C64.2422 22.3135 64.2422 22.313 64.2422 22.3125C64.2422 22.3119 64.2422 22.3114 64.2422 22.3109C64.2422 22.3104 64.2422 22.3098 64.2422 22.3093C64.2422 22.3088 64.2422 22.3083 64.2422 22.3077C64.2422 22.3072 64.2422 22.3067 64.2422 22.3062C64.2422 22.3056 64.2422 22.3051 64.2422 22.3046C64.2422 22.3041 64.2422 22.3035 64.2422 22.303C64.2422 22.3025 64.2422 22.302 64.2422 22.3014C64.2422 22.3009 64.2422 22.3004 64.2422 22.2999C64.2422 22.2993 64.2422 22.2988 64.2422 22.2983C64.2422 22.2977 64.2422 22.2972 64.2422 22.2967C64.2422 22.2962 64.2422 22.2956 64.2422 22.2951C64.2422 22.2946 64.2422 22.2941 64.2422 22.2935C64.2422 22.293 64.2422 22.2925 64.2422 22.2919C64.2422 22.2914 64.2422 22.2909 64.2422 22.2903C64.2422 22.2898 64.2422 22.2893 64.2422 22.2888C64.2422 22.2882 64.2422 22.2877 64.2422 22.2872C64.2422 22.2866 64.2422 22.2861 64.2422 22.2856C64.2422 22.285 64.2422 22.2845 64.2422 22.284C64.2422 22.2835 64.2422 22.2829 64.2422 22.2824C64.2422 22.2819 64.2422 22.2813 64.2422 22.2808C64.2422 22.2803 64.2422 22.2797 64.2422 22.2792C64.2422 22.2787 64.2422 22.2781 64.2422 22.2776C64.2422 22.2771 64.2422 22.2765 64.2422 22.276C64.2422 22.2755 64.2422 22.2749 64.2422 22.2744C64.2422 22.2739 64.2422 22.2733 64.2422 22.2728C64.2422 22.2723 64.2422 22.2717 64.2422 22.2712C64.2422 22.2707 64.2422 22.2701 64.2422 22.2696C64.2422 22.2691 64.2422 22.2685 64.2422 22.268C64.2422 22.2675 64.2422 22.2669 64.2422 22.2664C64.2422 22.2659 64.2422 22.2653 64.2422 22.2648C64.2422 22.2643 64.2422 22.2637 64.2422 22.2632C64.2422 22.2627 64.2422 22.2621 64.2422 22.2616C64.2422 22.261 64.2422 22.2605 64.2422 22.26C64.2422 22.2594 64.2422 22.2589 64.2422 22.2584C64.2422 22.2578 64.2422 22.2573 64.2422 22.2568C64.2422 22.2562 64.2422 22.2557 64.2422 22.2551C64.2422 22.2546 64.2422 22.2541 64.2422 22.2535C64.2422 22.253 64.2422 22.2525 64.2422 22.2519C64.2422 22.2514 64.2422 22.2508 64.2422 22.2503C64.2422 22.2498 64.2422 22.2492 64.2422 22.2487C64.2422 22.2481 64.2422 22.2476 64.2422 22.2471C64.2422 22.2465 64.2422 22.246 64.2422 22.2454C64.2422 22.2449 64.2422 22.2444 64.2422 22.2438C64.2422 22.2433 64.2422 22.2427 64.2422 22.2422C64.2422 22.2417 64.2422 22.2411 64.2422 22.2406C64.2422 22.24 64.2422 22.2395 64.2422 22.239C64.2422 22.2384 64.2422 22.2379 64.2422 22.2373C64.2422 22.2368 64.2422 22.2362 64.2422 22.2357C64.2422 22.2352 64.2422 22.2346 64.2422 22.2341C64.2422 22.2335 64.2422 22.233 64.2422 22.2325C64.2422 22.2319 64.2422 22.2314 64.2422 22.2308C64.2422 22.2303 64.2422 22.2297 64.2422 22.2292C64.2422 22.2286 64.2422 22.2281 64.2422 22.2276C64.2422 22.227 64.2422 22.2265 64.2422 22.2259C64.2422 22.2254 64.2422 22.2248 64.2422 22.2243C64.2422 22.2237 64.2422 22.2232 64.2422 22.2227C64.2422 22.2221 64.2422 22.2216 64.2422 22.221C64.2422 22.2205 64.2422 22.2199 64.2422 22.2194C64.2422 22.2188 64.2422 22.2183 64.2422 22.2177C64.2422 22.2172 64.2422 22.2167 64.2422 22.2161C64.2422 22.2156 64.2422 22.215 64.2422 22.2145C64.2422 22.2139 64.2422 22.2134 64.2422 22.2128C64.2422 22.2123 64.2422 22.2117 64.2422 22.2112C64.2422 22.2106 64.2422 22.2101 64.2422 22.2095C64.2422 22.209 64.2422 22.2084 64.2422 22.2079C64.2422 22.2073 64.2422 22.2068 64.2422 22.2062C64.2422 22.2057 64.2422 22.2051 64.2422 22.2046C64.2422 22.204 64.2422 22.2035 64.2422 22.2029C64.2422 22.2024 64.2422 22.2018 64.2422 22.2013C64.2422 22.2007 64.2422 22.2002 64.2422 22.1996C64.2422 22.1991 64.2422 22.1985 64.2422 22.198C64.2422 22.1974 64.2422 22.1969 64.2422 22.1963C64.2422 22.1958 64.2422 22.1952 64.2422 22.1947C64.2422 22.1941 64.2422 22.1936 64.2422 22.193C64.2422 22.1925 64.2422 22.1919 64.2422 22.1914C64.2422 22.1908 64.2422 22.1903 64.2422 22.1897C64.2422 22.1892 64.2422 22.1886 64.2422 22.1881C64.2422 22.1875 64.2422 22.1869 64.2422 22.1864C64.2422 22.1858 64.2422 22.1853 64.2422 22.1847C64.2422 22.1842 64.2422 22.1836 64.2422 22.1831C64.2422 22.1825 64.2422 22.182 64.2422 22.1814C64.2422 22.1809 64.2422 22.1803 64.2422 22.1797C64.2422 22.1792 64.2422 22.1786 64.2422 22.1781C64.2422 22.1775 64.2422 22.177 64.2422 22.1764C64.2422 22.1758 64.2422 22.1753 64.2422 22.1747C64.2422 22.1742 64.2422 22.1736 64.2422 22.1731C64.2422 22.1725 64.2422 22.172 64.2422 22.1714C64.2422 22.1708 64.2422 22.1703 64.2422 22.1697C64.2422 22.1692 64.2422 22.1686 64.2422 22.1681C64.2422 22.1675 64.2422 22.1669 64.2422 22.1664C64.2422 22.1658 64.2422 22.1653 64.2422 22.1647C64.2422 22.1641 64.2422 22.1636 64.2422 22.163C64.2422 22.1625 64.2422 22.1619 64.2422 22.1614C64.2422 22.1608 64.2422 22.1602 64.2422 22.1597C64.2422 22.1591 64.2422 22.1586 64.2422 22.158C64.2422 22.1574 64.2422 22.1569 64.2422 22.1563C64.2422 22.1558 64.2422 22.1552 64.2422 22.1546C64.2422 22.1541 64.2422 22.1535 64.2422 22.1529C64.2422 22.1524 64.2422 22.1518 64.2422 22.1513C64.2422 22.1507 64.2422 22.1501 64.2422 22.1496C64.2422 22.149 64.2422 22.1485 64.2422 22.1479C64.2422 22.1473 64.2422 22.1468 64.2422 22.1462C64.2422 22.1456 64.2422 22.1451 64.2422 22.1445C64.2422 22.1439 64.2422 22.1434 64.2422 22.1428C64.2422 22.1423 64.2422 22.1417 64.2422 22.1411C64.2422 22.1406 64.2422 22.14 64.2422 22.1394C64.2422 22.1389 64.2422 22.1383 64.2422 22.1377C64.2422 22.1372 64.2422 22.1366 64.2422 22.1361C64.2422 22.1355 64.2422 22.1349 64.2422 22.1344C64.2422 22.1338 64.2422 22.1332 64.2422 22.1327C64.2422 22.1321 64.2422 22.1315 64.2422 22.131C64.2422 22.1304 64.2422 22.1298 64.2422 22.1293C64.2422 22.1287 64.2422 22.1281 64.2422 22.1276C64.2422 22.127 64.2422 22.1264 64.2422 22.1259C64.2422 22.1253 64.2422 22.1247 64.2422 22.1242C64.2422 22.1236 64.2422 22.123 64.2422 22.1225C64.2422 22.1219 64.2422 22.1213 64.2422 22.1207C64.2422 22.1202 64.2422 22.1196 64.2422 22.119C64.2422 22.1185 64.2422 22.1179 64.2422 22.1173C64.2422 22.1168 64.2422 22.1162 64.2422 22.1156C64.2422 22.1151 64.2422 22.1145 64.2422 22.1139C64.2422 22.1133 64.2422 22.1128 64.2422 22.1122C64.2422 22.1116 64.2422 22.1111 64.2422 22.1105C64.2422 22.1099 64.2422 22.1094 64.2422 22.1088C64.2422 22.1082 64.2422 22.1076 64.2422 22.1071C64.2422 22.1065 64.2422 22.1059 64.2422 22.1054C64.2422 22.1048 64.2422 22.1042 64.2422 22.1036C64.2422 22.1031 64.2422 22.1025 64.2422 22.1019C64.2422 22.1013 64.2422 22.1008 64.2422 22.1002C64.2422 22.0996 64.2422 22.0991 64.2422 22.0985C64.2422 22.0979 64.2422 22.0973 64.2422 22.0968C64.2422 22.0962 64.2422 22.0956 64.2422 22.095C64.2422 22.0945 64.2422 22.0939 64.2422 22.0933C64.2422 22.0927 64.2422 22.0922 64.2422 22.0916C64.2422 22.091 64.2422 22.0904 64.2422 22.0899C64.2422 22.0893 64.2422 22.0887 64.2422 22.0881C64.2422 22.0876 64.2422 22.087 64.2422 22.0864C64.2422 22.0858 64.2422 22.0853 64.2422 22.0847C64.2422 22.0841 64.2422 22.0835 64.2422 22.0829C64.2422 22.0824 64.2422 22.0818 64.2422 22.0812C64.2422 22.0806 64.2422 22.0801 64.2422 22.0795C64.2422 22.0789 64.2422 22.0783 64.2422 22.0778C64.2422 22.0772 64.2422 22.0766 64.2422 22.076C64.2422 22.0754 64.2422 22.0749 64.2422 22.0743C64.2422 22.0737 64.2422 22.0731 64.2422 22.0725C64.2422 22.072 64.2422 22.0714 64.2422 22.0708C64.2422 22.0702 64.2422 22.0696 64.2422 22.0691C64.2422 22.0685 64.2422 22.0679 64.2422 22.0673C64.2422 22.0667 64.2422 22.0662 64.2422 22.0656C64.2422 22.065 64.2422 22.0644 64.2422 22.0638C64.2422 22.0633 64.2422 22.0627 64.2422 22.0621C64.2422 22.0615 64.2422 22.0609 64.2422 22.0604C64.2422 22.0598 64.2422 22.0592 64.2422 22.0586C64.2422 22.058 64.2422 22.0574 64.2422 22.0569C64.2422 22.0563 64.2422 22.0557 64.2422 22.0551C64.2422 22.0545 64.2422 22.0539 64.2422 22.0534C64.2422 22.0528 64.2422 22.0522 64.2422 22.0516C64.2422 22.051 64.2422 22.0504 64.2422 22.0499C64.2422 22.0493 64.2422 22.0487 64.2422 22.0481C64.2422 22.0475 64.2422 22.0469 64.2422 22.0464C64.2422 22.0458 64.2422 22.0452 64.2422 22.0446C64.2422 22.044 64.2422 22.0434 64.2422 22.0428C64.2422 22.0423 64.2422 22.0417 64.2422 22.0411C64.2422 22.0405 64.2422 22.0399 64.2422 22.0393C64.2422 22.0387 64.2422 22.0381 64.2422 22.0376C64.2422 22.037 64.2422 22.0364 64.2422 22.0358C64.2422 22.0352 64.2422 22.0346 64.2422 22.034C64.2422 22.0335 64.2422 22.0329 64.2422 22.0323C64.2422 22.0317 64.2422 22.0311 64.2422 22.0305C64.2422 22.0299 64.2422 22.0293 64.2422 22.0287C64.2422 22.0282 64.2422 22.0276 64.2422 22.027C64.2422 22.0264 64.2422 22.0258 64.2422 22.0252C64.2422 22.0246 64.2422 22.024 64.2422 22.0234C64.2422 22.0229 64.2422 22.0223 64.2422 22.0217C64.2422 22.0211 64.2422 22.0205 64.2422 22.0199C64.2422 22.0193 64.2422 22.0187 64.2422 22.0181C64.2422 22.0175 64.2422 22.0169 64.2422 22.0164C64.2422 22.0158 64.2422 22.0152 64.2422 22.0146C64.2422 22.014 64.2422 22.0134 64.2422 22.0128C64.2422 22.0122 64.2422 22.0116 64.2422 22.011C64.2422 22.0104 64.2422 22.0098 64.2422 22.0092C64.2422 22.0087 64.2422 22.0081 64.2422 22.0075C64.2422 22.0069 64.2422 22.0063 64.2422 22.0057C64.2422 22.0051 64.2422 22.0045 64.2422 22.0039C64.2422 22.0033 64.2422 22.0027 64.2422 22.0021C64.2422 22.0015 64.2422 22.0009 64.2422 22.0003C64.2422 21.9997 64.2422 21.9991 64.2422 21.9986C64.2422 21.998 64.2422 21.9974 64.2422 21.9968C64.2422 21.9962 64.2422 21.9956 64.2422 21.995C64.2422 21.9944 64.2422 21.9938 64.2422 21.9932C64.2422 21.9926 64.2422 21.992 64.2422 21.9914C64.2422 21.9908 64.2422 21.9902 64.2422 21.9896C64.2422 21.989 64.2422 21.9884 64.2422 21.9878C64.2422 21.9872 64.2422 21.9866 64.2422 21.986C64.2422 21.9854 64.2422 21.9848 64.2422 21.9842C64.2422 21.9836 64.2422 21.983 64.2422 21.9824C64.2422 21.9818 64.2422 21.9812 64.2422 21.9806C64.2422 21.98 64.2422 21.9794 64.2422 21.9788C64.2422 21.9782 64.2422 21.9776 64.2422 21.977C64.2422 21.9764 64.2422 21.9758 64.2422 21.9752C64.2422 21.9746 64.2422 21.974 64.2422 21.9734C64.2422 21.9728 64.2422 21.9722 64.2422 21.9716C64.2422 21.971 64.2422 21.9704 64.2422 21.9698C64.2422 21.9692 64.2422 21.9686 64.2422 21.968C64.2422 21.9674 64.2422 21.9668 64.2422 21.9662C64.2422 21.9656 64.2422 21.965 64.2422 21.9644C64.2422 21.9638 64.2422 21.9632 64.2422 21.9626C64.2422 21.962 64.2422 21.9614 64.2422 21.9608C64.2422 21.9602 64.2422 21.9596 64.2422 21.959C64.2422 21.9584 64.2422 21.9578 64.2422 21.9572C64.2422 21.9566 64.2422 21.956 64.2422 21.9554C64.2422 21.9548 64.2422 21.9542 64.2422 21.9536C64.2422 21.9529 64.2422 21.9523 64.2422 21.9517C64.2422 21.9511 64.2422 21.9505 64.2422 21.9499C64.2422 21.9493 64.2422 21.9487 64.2422 21.9481C64.2422 21.9475 64.2422 21.9469 64.2422 21.9463C64.2422 21.9457 64.2422 21.9451 64.2422 21.9445C64.2422 21.9439 64.2422 21.9433 64.2422 21.9426C64.2422 21.942 64.2422 21.9414 64.2422 21.9408C64.2422 21.9402 64.2422 21.9396 64.2422 21.939C64.2422 21.9384 64.2422 21.9378 64.2422 21.9372C64.2422 21.9366 64.2422 21.936 64.2422 21.9354C64.2422 21.9347 64.2422 21.9341 64.2422 21.9335C64.2422 21.9329 64.2422 21.9323 64.2422 21.9317C64.2422 21.9311 64.2422 21.9305 64.2422 21.9299C64.2422 21.9293 64.2422 21.9287 64.2422 21.928C64.2422 21.9274 64.2422 21.9268 64.2422 21.9262C64.2422 21.9256 64.2422 21.925 64.2422 21.9244C64.2422 21.9238 64.2422 21.9232 64.2422 21.9225C64.2422 21.9219 64.2422 21.9213 64.2422 21.9207C64.2422 21.9201 64.2422 21.9195 64.2422 21.9189C64.2422 21.9183 64.2422 21.9177 64.2422 21.917C64.2422 21.9164 64.2422 21.9158 64.2422 21.9152C64.2422 21.9146 64.2422 21.914 64.2422 21.9134C64.2422 21.9128 64.2422 21.9121 64.2422 21.9115C64.2422 21.9109 64.2422 21.9103 64.2422 21.9097C64.2422 21.9091 64.2422 21.9085 64.2422 21.9078C64.2422 21.9072 64.2422 21.9066 64.2422 21.906C64.2422 21.9054 64.2422 21.9048 64.2422 21.9042C64.2422 21.9035 64.2422 21.9029 64.2422 21.9023C64.2422 21.9017 64.2422 21.9011 64.2422 21.9005C64.2422 21.8998 64.2422 21.8992 64.2422 21.8986C64.2422 21.898 64.2422 21.8974 64.2422 21.8968C64.2422 21.8961 64.2422 21.8955 64.2422 21.8949C64.2422 21.8943 64.2422 21.8937 64.2422 21.8931C64.2422 21.8924 64.2422 21.8918 64.2422 21.8912C64.2422 21.8906 64.2422 21.89 64.2422 21.8894C64.2422 21.8887 64.2422 21.8881 64.2422 21.8875C64.2422 21.8869 64.2422 21.8863 64.2422 21.8856C64.2422 21.885 64.2422 21.8844 64.2422 21.8838C64.2422 21.8832 64.2422 21.8825 64.2422 21.8819C64.2422 21.8813 64.2422 21.8807 64.2422 21.8801C64.2422 21.8794 64.2422 21.8788 64.2422 21.8782C64.2422 21.8776 64.2422 21.877 64.2422 21.8763C64.2422 21.8757 64.2422 21.8751 64.2422 21.8745C64.2422 21.8739 64.2422 21.8732 64.2422 21.8726C64.2422 21.872 64.2422 21.8714 64.2422 21.8708C64.2422 21.8701 64.2422 21.8695 64.2422 21.8689C64.2422 21.8683 64.2422 21.8676 64.2422 21.867C64.2422 21.8664 64.2422 21.8658 64.2422 21.8652C64.2422 21.8645 64.2422 21.8639 64.2422 21.8633C64.2422 21.8627 64.2422 21.862 64.2422 21.8614C64.2422 21.8608 64.2422 21.8602 64.2422 21.8595C64.2422 21.8589 64.2422 21.8583 64.2422 21.8577C64.2422 21.857 64.2422 21.8564 64.2422 21.8558C64.2422 21.8552 64.2422 21.8545 64.2422 21.8539C64.2422 21.8533 64.2422 21.8527 64.2422 21.852C64.2422 21.8514 64.2422 21.8508 64.2422 21.8502C64.2422 21.8495 64.2422 21.8489 64.2422 21.8483C64.2422 21.8477 64.2422 21.847 64.2422 21.8464C64.2422 21.8458 64.2422 21.8451 64.2422 21.8445C64.2422 21.8439 64.2422 21.8433 64.2422 21.8426C64.2422 21.842 64.2422 21.8414 64.2422 21.8408C64.2422 21.8401 64.2422 21.8395 64.2422 21.8389C64.2422 21.8382 64.2422 21.8376 64.2422 21.837C64.2422 21.8364 64.2422 21.8357 64.2422 21.8351C64.2422 21.8345 64.2422 21.8338 64.2422 21.8332C64.2422 21.8326 64.2422 21.832 64.2422 21.8313C64.2422 21.8307 64.2422 21.8301 64.2422 21.8294C64.2422 21.8288 64.2422 21.8282 64.2422 21.8275C64.2422 21.8269 64.2422 21.8263 64.2422 21.8256C64.2422 21.825 64.2422 21.8244 64.2422 21.8238C64.2422 21.8231 64.2422 21.8225 64.2422 21.8219C64.2422 21.8212 64.2422 21.8206 64.2422 21.82C64.2422 21.8193 64.2422 21.8187 64.2422 21.8181C64.2422 21.8174 64.2422 21.8168 64.2422 21.8162C64.2422 21.8155 64.2422 21.8149 64.2422 21.8143C64.2422 21.8136 64.2422 21.813 64.2422 21.8124C64.2422 21.8117 64.2422 21.8111 64.2422 21.8105C64.2422 21.8098 64.2422 21.8092 64.2422 21.8086C64.2422 21.8079 64.2422 21.8073 64.2422 21.8067C64.2422 21.806 64.2422 21.8054 64.2422 21.8048C64.2422 21.8041 64.2422 21.8035 64.2422 21.8028C64.2422 21.8022 64.2422 21.8016 64.2422 21.8009C64.2422 21.8003 64.2422 21.7997 64.2422 21.799C64.2422 21.7984 64.2422 21.7978 64.2422 21.7971C64.2422 21.7965 64.2422 21.7958 64.2422 21.7952C64.2422 21.7946 64.2422 21.7939 64.2422 21.7933C64.2422 21.7927 64.2422 21.792 64.2422 21.7914C64.2422 21.7907 64.2422 21.7901 64.2422 21.7895C64.2422 21.7888 64.2422 21.7882 64.2422 21.7876C64.2422 21.7869 64.2422 21.7863 64.2422 21.7856C64.2422 21.785 64.2422 21.7844 64.2422 21.7837C64.2422 21.7831 64.2422 21.7824 64.2422 21.7818C64.2422 21.7812 64.2422 21.7805 64.2422 21.7799C64.2422 21.7792 64.2422 21.7786 64.2422 21.778C64.2422 21.7773 64.2422 21.7767 64.2422 21.776C64.2422 21.7754 64.2422 21.7748 64.2422 21.7741C64.2422 21.7735 64.2422 21.7728 64.2422 21.7722C64.2422 21.7715 64.2422 21.7709 64.2422 21.7703C64.2422 21.7696 64.2422 21.769 64.2422 21.7683C64.2422 21.7677 64.2422 21.767 64.2422 21.7664C64.2422 21.7658 64.2422 21.7651 64.2422 21.7645C64.2422 21.7638 64.2422 21.7632 64.2422 21.7625C64.2422 21.7619 64.2422 21.7613 64.2422 21.7606C64.2422 21.76 64.2422 21.7593 64.2422 21.7587C64.2422 21.758 64.2422 21.7574 64.2422 21.7567C64.2422 21.7561 64.2422 21.7555 64.2422 21.7548C64.2422 21.7542 64.2422 21.7535 64.2422 21.7529C64.2422 21.7522 64.2422 21.7516 64.2422 21.7509C64.2422 21.7503 64.2422 21.7496 64.2422 21.749C64.2422 21.7484 64.2422 21.7477 64.2422 21.7471C64.2422 21.7464 64.2422 21.7458 64.2422 21.7451C64.2422 21.7445 64.2422 21.7438 64.2422 21.7432C64.2422 21.7425 64.2422 21.7419 64.2422 21.7412C64.2422 21.7406 64.2422 21.7399 64.2422 21.7393C64.2422 21.7386 64.2422 21.738 64.2422 21.7373C64.2422 21.7367 64.2422 21.736 64.2422 21.7354C64.2422 21.7348 64.2422 21.7341 64.2422 21.7335C64.2422 21.7328 64.2422 21.7322 64.2422 21.7315C64.2422 21.7309 64.2422 21.7302 64.2422 21.7296C64.2422 21.7289 64.2422 21.7283 64.2422 21.7276C64.2422 21.727 64.2422 21.7263 64.2422 21.7257C64.2422 21.725 64.2422 21.7243 64.2422 21.7237C64.2422 21.723 64.2422 21.7224 64.2422 21.7217C64.2422 21.7211 64.2422 21.7204 64.2422 21.7198C64.2422 21.7191 64.2422 21.7185 64.2422 21.7178C64.2422 21.7172 64.2422 21.7165 64.2422 21.7159C64.2422 21.7152 64.2422 21.7146 64.2422 21.7139C64.2422 21.7133 64.2422 21.7126 64.2422 21.712C64.2422 21.7113 64.2422 21.7106 64.2422 21.71C64.2422 21.7093 64.2422 21.7087 64.2422 21.708C64.2422 21.7074 64.2422 21.7067 64.2422 21.7061C64.2422 21.7054 64.2422 21.7048 64.2422 21.7041C64.2422 21.7034 64.2422 21.7028 64.2422 21.7021C64.2422 21.7015 64.2422 21.7008 64.2422 21.7002C64.2422 21.6995 64.2422 21.6989 64.2422 21.6982C64.2422 21.6975 64.2422 21.6969 64.2422 21.6962C64.2422 21.6956 64.2422 21.6949 64.2422 21.6943C64.2422 21.6936 64.2422 21.6929 64.2422 21.6923C64.2422 21.6916 64.2422 21.691 64.2422 21.6903C64.2422 21.6897 64.2422 21.689 64.2422 21.6883C64.2422 21.6877 64.2422 21.687 64.2422 21.6864C64.2422 21.6857 64.2422 21.685 64.2422 21.6844C64.2422 21.6837 64.2422 21.6831 64.2422 21.6824C64.2422 21.6818 64.2422 21.6811 64.2422 21.6804C64.2422 21.6798 64.2422 21.6791 64.2422 21.6785C64.2422 21.6778 64.2422 21.6771 64.2422 21.6765C64.2422 21.6758 64.2422 21.6752 64.2422 21.6745C64.2422 21.6738 64.2422 21.6732 64.2422 21.6725C64.2422 21.6718 64.2422 21.6712 64.2422 21.6705C64.2422 21.6699 64.2422 21.6692 64.2422 21.6685C64.2422 21.6679 64.2422 21.6672 64.2422 21.6666C64.2422 21.6659 64.2422 21.6652 64.2422 21.6646C64.2422 21.6639 64.2422 21.6632 64.2422 21.6626C64.2422 21.6619 64.2422 21.6613 64.2422 21.6606C64.2422 21.6599 64.2422 21.6593 64.2422 21.6586C64.2422 21.6579 64.2422 21.6573 64.2422 21.6566C64.2422 21.6559 64.2422 21.6553 64.2422 21.6546C64.2422 21.6539 64.2422 21.6533 64.2422 21.6526C64.2422 21.652 64.2422 21.6513 64.2422 21.6506C64.2422 21.65 64.2422 21.6493 64.2422 21.6486C64.2422 21.648 64.2422 21.6473 64.2422 21.6466C64.2422 21.646 64.2422 21.6453 64.2422 21.6446C64.2422 21.644 64.2422 21.6433 64.2422 21.6426C64.2422 21.642 64.2422 21.6413 64.2422 21.6406C64.2422 21.64 64.2422 21.6393 64.2422 21.6386C64.2422 21.638 64.2422 21.6373 64.2422 21.6366C64.2422 21.636 64.2422 21.6353 64.2422 21.6346C64.2422 21.6339 64.2422 21.6333 64.2422 21.6326C64.2422 21.6319 64.2422 21.6313 64.2422 21.6306C64.2422 21.6299 64.2422 21.6293 64.2422 21.6286C64.2422 21.6279 64.2422 21.6273 64.2422 21.6266C64.2422 21.6259 64.2422 21.6252 64.2422 21.6246C64.2422 21.6239 64.2422 21.6232 64.2422 21.6226C64.2422 21.6219 64.2422 21.6212 64.2422 21.6205C64.2422 21.6199 64.2422 21.6192 64.2422 21.6185C64.2422 21.6179 64.2422 21.6172 64.2422 21.6165C64.2422 21.6158 64.2422 21.6152 64.2422 21.6145C64.2422 21.6138 64.2422 21.6132 64.2422 21.6125C64.2422 21.6118 64.2422 21.6111 64.2422 21.6105C64.2422 21.6098 64.2422 21.6091 64.2422 21.6084C64.2422 21.6078 64.2422 21.6071 64.2422 21.6064C64.2422 21.6058 64.2422 21.6051 64.2422 21.6044C64.2422 21.6037 64.2422 21.6031 64.2422 21.6024C64.2422 21.6017 64.2422 21.601 64.2422 21.6004C64.2422 21.5997 64.2422 21.599 64.2422 21.5983C64.2422 21.5977 64.2422 21.597 64.2422 21.5963C64.2422 21.5956 64.2422 21.595 64.2422 21.5943C64.2422 21.5936 64.2422 21.5929 64.2422 21.5922C64.2422 21.5916 64.2422 21.5909 64.2422 21.5902C64.2422 21.5895 64.2422 21.5889 64.2422 21.5882C64.2422 21.5875 64.2422 21.5868 64.2422 21.5862C64.2422 21.5855 64.2422 21.5848 64.2422 21.5841C64.2422 21.5834 64.2422 21.5828 64.2422 21.5821C64.2422 21.5814 64.2422 21.5807 64.2422 21.5801C64.2422 21.5794 64.2422 21.5787 64.2422 21.578C64.2422 21.5773 64.2422 21.5767 64.2422 21.576C64.2422 21.5753 64.2422 21.5746 64.2422 21.5739C64.2422 21.5733 64.2422 21.5726 64.2422 21.5719C64.2422 21.5712 64.2422 21.5705 64.2422 21.5699C64.2422 21.5692 64.2422 21.5685 64.2422 21.5678C64.2422 21.5671 64.2422 21.5665 64.2422 21.5658C64.2422 21.5651 64.2422 21.5644 64.2422 21.5637C64.2422 21.563 64.2422 21.5624 64.2422 21.5617C64.2422 21.561 64.2422 21.5603 64.2422 21.5596C64.2422 21.5589 64.2422 21.5583 64.2422 21.5576C64.2422 21.5569 64.2422 21.5562 64.2422 21.5555C64.2422 21.5548 64.2422 21.5542 64.2422 21.5535C64.2422 21.5528 64.2422 21.5521 64.2422 21.5514C64.2422 21.5507 64.2422 21.5501 64.2422 21.5494C64.2422 21.5487 64.2422 21.548 64.2422 21.5473C64.2422 21.5466 64.2422 21.546 64.2422 21.5453C64.2422 21.5446 64.2422 21.5439 64.2422 21.5432C64.2422 21.5425 64.2422 21.5418 64.2422 21.5412C64.2422 21.5405 64.2422 21.5398 64.2422 21.5391C64.2422 21.5384 64.2422 21.5377 64.2422 21.537C64.2422 21.5364 64.2422 21.5357 64.2422 21.535C64.2422 21.5343 64.2422 21.5336 64.2422 21.5329C64.2422 21.5322 64.2422 21.5315 64.2422 21.5309C64.2422 21.5302 64.2422 21.5295 64.2422 21.5288C64.2422 21.5281 64.2422 21.5274 64.2422 21.5267C64.2422 21.526 64.2422 21.5253 64.2422 21.5247C64.2422 21.524 64.2422 21.5233 64.2422 21.5226C64.2422 21.5219 64.2422 21.5212 64.2422 21.5205C64.2422 21.5198 64.2422 21.5191 64.2422 21.5184C64.2422 21.5178 64.2422 21.5171 64.2422 21.5164C64.2422 21.5157 64.2422 21.515 64.2422 21.5143C64.2422 21.5136 64.2422 21.5129 64.2422 21.5122C64.2422 21.5115 64.2422 21.5108 64.2422 21.5102C64.2422 21.5095 64.2422 21.5088 64.2422 21.5081C64.2422 21.5074 64.2422 21.5067 64.2422 21.506C64.2422 21.5053 64.2422 21.5046 64.2422 21.5039C64.2422 21.5032 64.2422 21.5025 64.2422 21.5018C64.2422 21.5012 64.2422 21.5005 64.2422 21.4998C64.2422 21.4991 64.2422 21.4984 64.2422 21.4977C64.2422 21.497 64.2422 21.4963 64.2422 21.4956C64.2422 21.4949 64.2422 21.4942 64.2422 21.4935C64.2422 21.4928 64.2422 21.4921 64.2422 21.4914C64.2422 21.4907 64.2422 21.49 64.2422 21.4893C64.2422 21.4887 64.2422 21.488 64.2422 21.4873C64.2422 21.4866 64.2422 21.4859 64.2422 21.4852C64.2422 21.4845 64.2422 21.4838 64.2422 21.4831C64.2422 21.4824 64.2422 21.4817 64.2422 21.481C64.2422 21.4803 64.2422 21.4796 64.2422 21.4789C64.2422 21.4782 64.2422 21.4775 64.2422 21.4768C64.2422 21.4761 64.2422 21.4754 64.2422 21.4747C64.2422 21.474 64.2422 21.4733 64.2422 21.4726C64.2422 21.4719 64.2422 21.4712 64.2422 21.4705C64.2422 21.4698 64.2422 21.4691 64.2422 21.4684C64.2422 21.4677 64.2422 21.467 64.2422 21.4663C64.2422 21.4656 64.2422 21.4649 64.2422 21.4642C64.2422 21.4635 64.2422 21.4628 64.2422 21.4621C64.2422 21.4614 64.2422 21.4607 64.2422 21.46C64.2422 21.4593 64.2422 21.4586 64.2422 21.4579C64.2422 21.4572 64.2422 21.4565 64.2422 21.4558C64.2422 21.4551 64.2422 21.4544 64.2422 21.4537C64.2422 21.453 64.2422 21.4523 64.2422 21.4516C64.2422 21.4509 64.2422 21.4502 64.2422 21.4495C64.2422 21.4488 64.2422 21.4481 64.2422 21.4474C64.2422 21.4467 64.2422 21.446 64.2422 21.4453C64.2422 21.4446 64.2422 21.4439 64.2422 21.4432C64.2422 21.4425 64.2422 21.4418 64.2422 21.4411C64.2422 21.4403 64.2422 21.4396 64.2422 21.4389C64.2422 21.4382 64.2422 21.4375 64.2422 21.4368C64.2422 21.4361 64.2422 21.4354 64.2422 21.4347C64.2422 21.434 64.2422 21.4333 64.2422 21.4326C64.2422 21.4319 64.2422 21.4312 64.2422 21.4305C64.2422 21.4298 64.2422 21.4291 64.2422 21.4284C64.2422 21.4276 64.2422 21.4269 64.2422 21.4262C64.2422 21.4255 64.2422 21.4248 64.2422 21.4241C64.2422 21.4234 64.2422 21.4227 64.2422 21.422C64.2422 21.4213 64.2422 21.4206 64.2422 21.4199C64.2422 21.4192 64.2422 21.4184 64.2422 21.4177C64.2422 21.417 64.2422 21.4163 64.2422 21.4156C64.2422 21.4149 64.2422 21.4142 64.2422 21.4135C64.2422 21.4128 64.2422 21.4121 64.2422 21.4114C64.2422 21.4106 64.2422 21.4099 64.2422 21.4092C64.2422 21.4085 64.2422 21.4078 64.2422 21.4071C64.2422 21.4064 64.2422 21.4057 64.2422 21.405C64.2422 21.4043 64.2422 21.4035 64.2422 21.4028C64.2422 21.4021 64.2422 21.4014 64.2422 21.4007C64.2422 21.4 64.2422 21.3993 64.2422 21.3986C64.2422 21.3979 64.2422 21.3971 64.2422 21.3964C64.2422 21.3957 64.2422 21.395 64.2422 21.3943C64.2422 21.3936 64.2422 21.3929 64.2422 21.3922C64.2422 21.3914 64.2422 21.3907 64.2422 21.39C64.2422 21.3893 64.2422 21.3886 64.2422 21.3879C64.2422 21.3872 64.2422 21.3864 64.2422 21.3857C64.2422 21.385 64.2422 21.3843 64.2422 21.3836C64.2422 21.3829 64.2422 21.3822 64.2422 21.3814C64.2422 21.3807 64.2422 21.38 64.2422 21.3793C64.2422 21.3786 64.2422 21.3779 64.2422 21.3771C64.2422 21.3764 64.2422 21.3757 64.2422 21.375H62.2422ZM62.2441 22.3874C62.2619 22.672 62.2884 22.9715 62.3233 23.2854L64.3111 23.0646C64.2793 22.7785 64.2558 22.5113 64.2402 22.2626L62.2441 22.3874ZM63.1738 24.1647L64.8988 24.4147L65.1856 22.4353L63.4606 22.1853L63.1738 24.1647ZM64.0422 23.425V24.3H66.0422V23.425H64.0422ZM64.595 23.4056C64.4737 23.4662 64.265 23.5463 63.9425 23.6385L64.4919 25.5615C64.8694 25.4537 65.2107 25.3338 65.4894 25.1944L64.595 23.4056ZM63.9298 23.6422C63.6095 23.7383 63.263 23.835 62.8898 23.9324L63.3946 25.8676C63.7881 25.765 64.1582 25.6617 64.5045 25.5578L63.9298 23.6422ZM62.9206 23.9249C62.582 24.0018 62.2442 24.0632 61.9071 24.1092L62.1773 26.0908C62.5735 26.0368 62.969 25.9649 63.3638 25.8751L62.9206 23.9249ZM61.8633 24.1161C61.5114 24.1801 61.2078 24.2266 60.9503 24.2568L61.184 26.2432C61.4933 26.2068 61.8397 26.1532 62.2211 26.0839L61.8633 24.1161ZM61.0672 24.25H60.2172V26.25H61.0672V24.25ZM61.1343 24.8513C61.007 24.5585 60.9366 24.2802 60.9134 24.0134L58.9209 24.1866C58.9644 24.6865 59.0941 25.1749 59.3001 25.6487L61.1343 24.8513ZM60.9134 24.0134C60.8823 23.6548 60.858 23.2082 60.8417 22.6697L58.8426 22.7303C58.8597 23.2918 58.8855 23.7785 58.9209 24.1866L60.9134 24.0134ZM59.8422 21.7H59.7172V23.7H59.8422V21.7ZM58.747 22.4575C58.6917 22.6788 58.595 22.9062 58.4467 23.141L60.1377 24.209C60.3894 23.8105 60.576 23.3879 60.6873 22.9425L58.747 22.4575ZM58.4601 23.1203C58.3249 23.3232 58.1415 23.5226 57.8975 23.7151L59.1368 25.2849C59.5263 24.9774 59.8595 24.6268 60.1242 24.2297L58.4601 23.1203ZM57.9032 23.7106C57.6989 23.8696 57.437 24.014 57.1035 24.1341L57.7809 26.0159C58.2807 25.836 58.7355 25.5971 59.1311 25.2894L57.9032 23.7106ZM57.1035 24.1341C56.8119 24.2391 56.4623 24.3 56.0422 24.3V26.3C56.6555 26.3 57.2392 26.2109 57.7809 26.0159L57.1035 24.1341ZM56.0422 24.3C55.5943 24.3 55.201 24.2324 54.8535 24.1083L54.1809 25.9917C54.7667 26.201 55.3901 26.3 56.0422 26.3V24.3ZM54.8535 24.1083C54.4933 23.9796 54.1934 23.8054 53.943 23.5907L52.6414 25.1093C53.0909 25.4946 53.6078 25.7871 54.1809 25.9917L54.8535 24.1083ZM53.943 23.5907C53.6986 23.3813 53.5088 23.1342 53.3687 22.8423L51.5657 23.7077C51.8255 24.2491 52.1858 24.7187 52.6414 25.1093L53.943 23.5907ZM53.3751 22.8559C53.2426 22.5687 53.1672 22.2307 53.1672 21.825H51.1672C51.1672 22.4859 51.2918 23.1147 51.5592 23.6941L53.3751 22.8559ZM53.1672 21.825C53.1672 21.1946 53.2869 20.7672 53.4549 20.4807L51.7295 19.4693C51.3308 20.1494 51.1672 20.9554 51.1672 21.825H53.1672ZM53.4549 20.4807C53.6224 20.195 53.903 19.9251 54.3644 19.6944L53.47 17.9056C52.7314 18.2749 52.1287 18.7884 51.7295 19.4693L53.4549 20.4807ZM54.374 19.6896C54.8675 19.4361 55.5405 19.2271 56.4232 19.0878L56.1112 17.1122C55.0939 17.2729 54.2002 17.5305 53.4604 17.9104L54.374 19.6896ZM56.4205 19.0882C57.3419 18.9452 58.4716 18.8394 59.8159 18.7738L59.7185 16.7762C58.3294 16.8439 57.1258 16.9548 56.1138 17.1118L56.4205 19.0882ZM60.7629 17.8676C60.8988 16.4071 60.8625 15.1645 60.5285 14.2739L58.6559 14.9761C58.8219 15.4188 58.9023 16.2763 58.7715 17.6824L60.7629 17.8676ZM60.5285 14.2739C60.3353 13.7588 60.0051 13.3203 59.5225 13.0233C59.0523 12.734 58.5127 12.625 57.9672 12.625V14.625C58.255 14.625 58.4029 14.6827 58.4743 14.7267C58.5334 14.763 58.599 14.8246 58.6559 14.9761L60.5285 14.2739ZM57.9672 12.625C57.3416 12.625 56.7433 12.7262 56.1832 12.9417L56.9012 14.8083C57.2077 14.6904 57.5595 14.625 57.9672 14.625V12.625ZM55.6111 13.5103L54.4361 16.5103L56.2983 17.2397L57.4733 14.2397L55.6111 13.5103ZM55.3672 15.875H54.2672V17.875H55.3672V15.875ZM55.0992 16.3203C54.9869 16.1518 54.8701 15.9555 54.7495 15.7294L52.9848 16.6706C53.1309 16.9445 53.2808 17.1982 53.4351 17.4297L55.0992 16.3203ZM54.7833 15.7992C54.6697 15.5395 54.5559 15.2712 54.4419 14.9942L52.5925 15.7557C52.7118 16.0455 52.8313 16.3272 52.951 16.6008L54.7833 15.7992ZM54.4659 15.0588C54.3711 14.7746 54.2844 14.4908 54.2057 14.2074L52.2787 14.7426C52.3666 15.0592 52.4632 15.3754 52.5685 15.6912L54.4659 15.0588ZM54.2184 14.2581C54.1585 13.9886 54.1144 13.7304 54.0853 13.4832L52.099 13.7168C52.1366 14.0363 52.1925 14.3614 52.266 14.6919L54.2184 14.2581ZM53.6569 14.4253C54.165 14.0776 54.8628 13.7756 55.7847 13.5451L55.2997 11.6049C54.2216 11.8744 53.286 12.2557 52.5275 12.7747L53.6569 14.4253ZM55.7847 13.5451C56.6991 13.3165 57.6755 13.2 58.7172 13.2V11.2C57.5255 11.2 56.3853 11.3335 55.2997 11.6049L55.7847 13.5451ZM58.7172 13.2C59.6025 13.2 60.2509 13.3025 60.7025 13.4656L61.3818 11.5844C60.6334 11.3142 59.7319 11.2 58.7172 11.2V13.2ZM60.726 13.4737C61.2074 13.6342 61.5118 13.8382 61.7022 14.0477L63.1821 12.7023C62.7059 12.1785 62.077 11.8158 61.3584 11.5763L60.726 13.4737ZM61.7351 14.0821C61.9611 14.3081 62.1153 14.5721 62.2032 14.8909L64.1312 14.3591C63.9525 13.7112 63.6233 13.1419 63.1493 12.6679L61.7351 14.0821ZM62.2032 14.8909C62.3104 15.2797 62.3672 15.7062 62.3672 16.175H64.3672C64.3672 15.5438 64.2906 14.937 64.1312 14.3591L62.2032 14.8909ZM62.3672 16.175C62.3672 17.1589 62.3426 18.0464 62.2941 18.8389L64.2903 18.9611C64.3418 18.1202 64.3672 17.1911 64.3672 16.175H62.3672ZM62.2931 18.8584C62.2591 19.6731 62.2422 20.512 62.2422 21.375H64.2422C64.2422 20.538 64.2586 19.7269 64.2913 18.9416L62.2931 18.8584ZM57.6172 24.3C58.0933 24.3 58.5627 24.209 58.9878 23.9824L58.0466 22.2176C57.9717 22.2576 57.8411 22.3 57.6172 22.3V24.3ZM58.9878 23.9824C59.3246 23.8027 59.6282 23.577 59.8821 23.2977L58.4022 21.9523C58.3229 22.0396 58.2098 22.1306 58.0466 22.2176L58.9878 23.9824ZM59.8493 23.3321C60.12 23.0614 60.3364 22.7457 60.4755 22.384L58.6088 21.666C58.5813 21.7376 58.5311 21.8219 58.4351 21.9179L59.8493 23.3321ZM60.4501 22.4441C60.5632 22.1992 60.6576 21.9621 60.725 21.7373L58.8094 21.1627C58.7768 21.2713 58.7212 21.4175 58.6342 21.6059L60.4501 22.4441ZM60.7672 21.45V18.95H58.7672V21.45H60.7672ZM59.7459 17.9502C58.9375 17.9674 58.2433 18.0194 57.6778 18.1136L58.0066 20.0864C58.4411 20.014 59.0302 19.9659 59.7885 19.9498L59.7459 17.9502ZM57.6778 18.1136C57.0926 18.2111 56.5401 18.3906 56.0905 18.708L57.2439 20.342C57.3609 20.2594 57.5918 20.1555 58.0066 20.0864L57.6778 18.1136ZM56.1239 18.6854C55.6732 18.9771 55.3319 19.3817 55.1352 19.8876L56.9992 20.6124C57.0358 20.5183 57.0945 20.4396 57.2104 20.3646L56.1239 18.6854ZM55.1242 19.9172C54.975 20.3399 54.9172 20.8105 54.9172 21.3H56.9172C56.9172 20.9561 56.9594 20.7267 57.0102 20.5828L55.1242 19.9172ZM54.9172 21.3C54.9172 22.0828 55.103 22.8367 55.6079 23.4258L57.1264 22.1242C57.0314 22.0133 56.9172 21.7838 56.9172 21.3H54.9172ZM55.6079 23.4258C56.1287 24.0334 56.8428 24.3 57.6172 24.3V22.3C57.3249 22.3 57.2057 22.2166 57.1264 22.1242L55.6079 23.4258ZM76.2332 18.3L75.4564 17.6703L74.9586 18.2843L75.4412 18.9105L76.2332 18.3ZM80.1832 23.425L79.3912 24.0355L79.5852 24.2873L79.8891 24.3808L80.1832 23.425ZM81.4082 24.025H82.4082V23.5025L81.9793 23.2041L81.4082 24.025ZM81.4082 25V26H82.4082V25H81.4082ZM75.0332 25H74.0332V26H75.0332V25ZM75.0332 24.05L74.445 23.2413L74.0332 23.5408V24.05H75.0332ZM75.5832 23.7L76.0621 24.5779L76.0747 24.571L76.0871 24.5638L75.5832 23.7ZM76.1832 23.425L76.4994 24.3737L77.7699 23.9502L77.003 22.8523L76.1832 23.425ZM73.8082 20.025L74.628 19.4523L73.795 18.2598L72.9799 19.4647L73.8082 20.025ZM71.5082 23.425L70.6799 22.8647L69.9573 23.933L71.1719 24.3667L71.5082 23.425ZM72.1082 23.7L71.5937 24.5575L71.6113 24.5681L71.6294 24.5779L72.1082 23.7ZM72.6332 24.025H73.6332V23.5043L73.2067 23.2058L72.6332 24.025ZM72.6332 25V26H73.6332V25H72.6332ZM67.9082 25H66.9082V26H67.9082V25ZM67.9082 24.025L67.4121 23.1568L66.9082 23.4447V24.025H67.9082ZM68.5332 23.675L68.086 22.7806L68.07 22.7886L68.0544 22.7971L68.5332 23.675ZM69.2082 23.425L69.4659 24.3912L69.7822 24.3069L69.9874 24.0518L69.2082 23.425ZM72.9082 18.825L73.6874 19.4518L74.1852 18.8329L73.6951 18.2079L72.9082 18.825ZM69.1832 14.075L69.9701 13.4579L69.7917 13.2305L69.5195 13.1333L69.1832 14.075ZM68.5582 13.825L68.0794 14.7029L68.1113 14.7203L68.1444 14.7354L68.5582 13.825ZM68.0582 13.475H67.0582V13.9241L67.3938 14.2224L68.0582 13.475ZM68.0582 12.5V11.5H67.0582V12.5H68.0582ZM74.3332 12.5H75.3332V11.5H74.3332V12.5ZM74.3332 13.45L74.8879 14.2821L75.3332 13.9852V13.45H74.3332ZM73.7832 13.825L74.3379 14.657L74.3474 14.6507L74.3567 14.6442L73.7832 13.825ZM73.2082 14.075L72.9335 13.1135L71.5828 13.4994L72.3896 14.6493L73.2082 14.075ZM75.3832 17.175L74.5646 17.7493L75.4026 18.9438L76.2142 17.7312L75.3832 17.175ZM77.4582 14.075L78.2892 14.6312L79.0466 13.4998L77.7404 13.1156L77.4582 14.075ZM76.7832 13.8L76.2687 14.6575L76.2687 14.6575L76.7832 13.8ZM76.3332 13.475H75.3332V13.9288L75.6747 14.2276L76.3332 13.475ZM76.3332 12.5V11.5H75.3332V12.5H76.3332ZM80.9582 12.5H81.9582V11.5H80.9582V12.5ZM80.9582 13.475L81.5317 14.2942L81.9582 13.9957V13.475H80.9582ZM80.4082 13.8L80.8554 14.6944L80.8554 14.6944L80.4082 13.8ZM79.6582 14.075L79.3906 13.1115L79.0826 13.197L78.8814 13.4453L79.6582 14.075ZM75.4412 18.9105L79.3912 24.0355L80.9753 22.8145L77.0253 17.6895L75.4412 18.9105ZM79.8891 24.3808C80.2208 24.4828 80.536 24.6364 80.8371 24.8459L81.9793 23.2041C81.5137 22.8802 81.0123 22.6338 80.4773 22.4692L79.8891 24.3808ZM80.4082 24.025V25H82.4082V24.025H80.4082ZM81.4082 24H75.0332V26H81.4082V24ZM76.0332 25V24.05H74.0332V25H76.0332ZM75.6214 24.8587C75.7727 24.7487 75.9197 24.6556 76.0621 24.5779L75.1044 22.8221C74.8801 22.9444 74.6603 23.0847 74.445 23.2413L75.6214 24.8587ZM76.0871 24.5638C76.2334 24.4784 76.3708 24.4166 76.4994 24.3737L75.867 22.4763C75.5956 22.5668 75.333 22.6882 75.0793 22.8362L76.0871 24.5638ZM77.003 22.8523L74.628 19.4523L72.9884 20.5977L75.3634 23.9977L77.003 22.8523ZM72.9799 19.4647L70.6799 22.8647L72.3365 23.9853L74.6365 20.5853L72.9799 19.4647ZM71.1719 24.3667C71.3592 24.4336 71.4964 24.4991 71.5937 24.5575L72.6227 22.8425C72.3867 22.7009 72.1239 22.583 71.8445 22.4833L71.1719 24.3667ZM71.6294 24.5779C71.7809 24.6606 71.9243 24.7494 72.0597 24.8442L73.2067 23.2058C73.0088 23.0673 72.8021 22.9394 72.5871 22.8221L71.6294 24.5779ZM71.6332 24.025V25H73.6332V24.025H71.6332ZM72.6332 24H67.9082V26H72.6332V24ZM68.9082 25V24.025H66.9082V25H68.9082ZM68.4043 24.8932C68.6335 24.7623 68.8359 24.649 69.0121 24.5529L68.0544 22.7971C67.8639 22.901 67.6496 23.021 67.4121 23.1568L68.4043 24.8932ZM68.9804 24.5694C69.1113 24.504 69.2714 24.4431 69.4659 24.3912L68.9505 22.4588C68.645 22.5402 68.3551 22.646 68.086 22.7806L68.9804 24.5694ZM69.9874 24.0518L73.6874 19.4518L72.129 18.1982L68.429 22.7982L69.9874 24.0518ZM73.6951 18.2079L69.9701 13.4579L68.3963 14.6921L72.1213 19.4421L73.6951 18.2079ZM69.5195 13.1333C69.3067 13.0573 69.125 12.9842 68.972 12.9146L68.1444 14.7354C68.3581 14.8325 68.593 14.9261 68.8469 15.0167L69.5195 13.1333ZM69.0371 12.9471C68.9176 12.882 68.8136 12.8085 68.7226 12.7276L67.3938 14.2224C67.6028 14.4081 67.8321 14.568 68.0794 14.7029L69.0371 12.9471ZM69.0582 13.475V12.5H67.0582V13.475H69.0582ZM68.0582 13.5H74.3332V11.5H68.0582V13.5ZM73.3332 12.5V13.45H75.3332V12.5H73.3332ZM73.7785 12.6179C73.5733 12.7548 73.3836 12.8841 73.2097 13.0058L74.3567 14.6442C74.5161 14.5326 74.6931 14.4119 74.8879 14.2821L73.7785 12.6179ZM73.2285 12.9929C73.1885 13.0196 73.0994 13.0661 72.9335 13.1135L73.4829 15.0365C73.7836 14.9506 74.0779 14.8304 74.3379 14.657L73.2285 12.9929ZM72.3896 14.6493L74.5646 17.7493L76.2018 16.6007L74.0268 13.5007L72.3896 14.6493ZM76.2142 17.7312L78.2892 14.6312L76.6272 13.5188L74.5522 16.6188L76.2142 17.7312ZM77.7404 13.1156C77.501 13.0452 77.3643 12.9825 77.2977 12.9425L76.2687 14.6575C76.5354 14.8175 76.8487 14.9381 77.176 15.0344L77.7404 13.1156ZM77.2977 12.9425C77.1772 12.8702 77.0762 12.7963 76.9917 12.7224L75.6747 14.2276C75.8569 14.387 76.0559 14.5298 76.2687 14.6575L77.2977 12.9425ZM77.3332 13.475V12.5H75.3332V13.475H77.3332ZM76.3332 13.5H80.9582V11.5H76.3332V13.5ZM79.9582 12.5V13.475H81.9582V12.5H79.9582ZM80.3847 12.6558C80.262 12.7417 80.1214 12.8254 79.961 12.9056L80.8554 14.6944C81.095 14.5746 81.3211 14.4416 81.5317 14.2942L80.3847 12.6558ZM79.961 12.9056C79.8359 12.9681 79.6508 13.0392 79.3906 13.1115L79.9258 15.0385C80.2656 14.9441 80.5805 14.8319 80.8554 14.6944L79.961 12.9056ZM78.8814 13.4453L75.4564 17.6703L77.01 18.9297L80.435 14.7047L78.8814 13.4453ZM92.3016 18.3L91.5247 17.6703L91.0269 18.2843L91.5095 18.9105L92.3016 18.3ZM96.2516 23.425L95.4595 24.0355L95.6536 24.2873L95.9575 24.3808L96.2516 23.425ZM97.4766 24.025H98.4766V23.5025L98.0476 23.2041L97.4766 24.025ZM97.4766 25V26H98.4766V25H97.4766ZM91.1016 25H90.1016V26H91.1016V25ZM91.1016 24.05L90.5134 23.2413L90.1016 23.5408V24.05H91.1016ZM91.6516 23.7L92.1304 24.5779L92.143 24.571L92.1554 24.5638L91.6516 23.7ZM92.2516 23.425L92.5678 24.3737L93.8382 23.9502L93.0714 22.8523L92.2516 23.425ZM89.8766 20.025L90.6964 19.4523L89.8633 18.2598L89.0483 19.4647L89.8766 20.025ZM87.5766 23.425L86.7483 22.8647L86.0256 23.933L87.2402 24.3667L87.5766 23.425ZM88.1766 23.7L87.6621 24.5575L87.6797 24.5681L87.6977 24.5779L88.1766 23.7ZM88.7016 24.025H89.7016V23.5043L89.275 23.2058L88.7016 24.025ZM88.7016 25V26H89.7016V25H88.7016ZM83.9766 25H82.9766V26H83.9766V25ZM83.9766 24.025L83.4804 23.1568L82.9766 23.4447V24.025H83.9766ZM84.6016 23.675L84.1544 22.7806L84.1384 22.7886L84.1227 22.7971L84.6016 23.675ZM85.2766 23.425L85.5342 24.3912L85.8506 24.3069L86.0558 24.0518L85.2766 23.425ZM88.9766 18.825L89.7558 19.4518L90.2536 18.8329L89.7635 18.2079L88.9766 18.825ZM85.2516 14.075L86.0385 13.4579L85.8601 13.2305L85.5879 13.1333L85.2516 14.075ZM84.6266 13.825L84.1477 14.7029L84.1796 14.7203L84.2128 14.7354L84.6266 13.825ZM84.1266 13.475H83.1266V13.9241L83.4622 14.2224L84.1266 13.475ZM84.1266 12.5V11.5H83.1266V12.5H84.1266ZM90.4016 12.5H91.4016V11.5H90.4016V12.5ZM90.4016 13.45L90.9563 14.2821L91.4016 13.9852V13.45H90.4016ZM89.8516 13.825L90.4063 14.657L90.4157 14.6507L90.425 14.6442L89.8516 13.825ZM89.2766 14.075L89.0018 13.1135L87.6511 13.4994L88.458 14.6493L89.2766 14.075ZM91.4516 17.175L90.6329 17.7493L91.471 18.9438L92.2826 17.7312L91.4516 17.175ZM93.5266 14.075L94.3576 14.6312L95.1149 13.4998L93.8087 13.1156L93.5266 14.075ZM92.8516 13.8L92.3371 14.6575V14.6575L92.8516 13.8ZM92.4016 13.475H91.4016V13.9288L91.7431 14.2276L92.4016 13.475ZM92.4016 12.5V11.5H91.4016V12.5H92.4016ZM97.0266 12.5H98.0266V11.5H97.0266V12.5ZM97.0266 13.475L97.6 14.2942L98.0266 13.9957V13.475H97.0266ZM96.4766 13.8L96.9238 14.6944L96.9238 14.6944L96.4766 13.8ZM95.7266 14.075L95.4589 13.1115L95.151 13.197L94.9497 13.4453L95.7266 14.075ZM91.5095 18.9105L95.4595 24.0355L97.0436 22.8145L93.0936 17.6895L91.5095 18.9105ZM95.9575 24.3808C96.2891 24.4828 96.6044 24.6364 96.9055 24.8459L98.0476 23.2041C97.5821 22.8802 97.0807 22.6338 96.5456 22.4692L95.9575 24.3808ZM96.4766 24.025V25H98.4766V24.025H96.4766ZM97.4766 24H91.1016V26H97.4766V24ZM92.1016 25V24.05H90.1016V25H92.1016ZM91.6897 24.8587C91.8411 24.7487 91.988 24.6556 92.1304 24.5779L91.1727 22.8221C90.9484 22.9444 90.7287 23.0847 90.5134 23.2413L91.6897 24.8587ZM92.1554 24.5638C92.3017 24.4784 92.4391 24.4166 92.5678 24.3737L91.9353 22.4763C91.664 22.5668 91.4014 22.6882 91.1477 22.8362L92.1554 24.5638ZM93.0714 22.8523L90.6964 19.4523L89.0568 20.5977L91.4318 23.9977L93.0714 22.8523ZM89.0483 19.4647L86.7483 22.8647L88.4048 23.9853L90.7048 20.5853L89.0483 19.4647ZM87.2402 24.3667C87.4275 24.4336 87.5648 24.4991 87.6621 24.5575L88.6911 22.8425C88.455 22.7009 88.1922 22.583 87.9129 22.4833L87.2402 24.3667ZM87.6977 24.5779C87.8493 24.6606 87.9926 24.7494 88.1281 24.8442L89.275 23.2058C89.0771 23.0673 88.8705 22.9394 88.6554 22.8221L87.6977 24.5779ZM87.7016 24.025V25H89.7016V24.025H87.7016ZM88.7016 24H83.9766V26H88.7016V24ZM84.9766 25V24.025H82.9766V25H84.9766ZM84.4727 24.8932C84.7018 24.7623 84.9042 24.649 85.0804 24.5529L84.1227 22.7971C83.9322 22.901 83.718 23.021 83.4804 23.1568L84.4727 24.8932ZM85.0488 24.5694C85.1796 24.504 85.3397 24.4431 85.5342 24.3912L85.0189 22.4588C84.7134 22.5402 84.4235 22.646 84.1544 22.7806L85.0488 24.5694ZM86.0558 24.0518L89.7558 19.4518L88.1973 18.1982L84.4973 22.7982L86.0558 24.0518ZM89.7635 18.2079L86.0385 13.4579L84.4647 14.6921L88.1897 19.4421L89.7635 18.2079ZM85.5879 13.1333C85.3751 13.0573 85.1933 12.9842 85.0404 12.9146L84.2128 14.7354C84.4264 14.8325 84.6614 14.9261 84.9152 15.0167L85.5879 13.1333ZM85.1054 12.9471C84.986 12.882 84.882 12.8085 84.7909 12.7276L83.4622 14.2224C83.6711 14.4081 83.9005 14.568 84.1477 14.7029L85.1054 12.9471ZM85.1266 13.475V12.5H83.1266V13.475H85.1266ZM84.1266 13.5H90.4016V11.5H84.1266V13.5ZM89.4016 12.5V13.45H91.4016V12.5H89.4016ZM89.8469 12.6179C89.6417 12.7548 89.452 12.8841 89.2781 13.0058L90.425 14.6442C90.5845 14.5326 90.7615 14.4119 90.9563 14.2821L89.8469 12.6179ZM89.2969 12.9929C89.2569 13.0196 89.1678 13.0661 89.0018 13.1135L89.5513 15.0365C89.852 14.9506 90.1463 14.8304 90.4063 14.657L89.2969 12.9929ZM88.458 14.6493L90.6329 17.7493L92.2702 16.6007L90.0952 13.5007L88.458 14.6493ZM92.2826 17.7312L94.3576 14.6312L92.6955 13.5188L90.6205 16.6188L92.2826 17.7312ZM93.8087 13.1156C93.5694 13.0452 93.4327 12.9825 93.3661 12.9425L92.3371 14.6575C92.6038 14.8175 92.9171 14.9381 93.2444 15.0344L93.8087 13.1156ZM93.3661 12.9425C93.2456 12.8702 93.1445 12.7963 93.0601 12.7224L91.7431 14.2276C91.9253 14.387 92.1242 14.5298 92.3371 14.6575L93.3661 12.9425ZM93.4016 13.475V12.5H91.4016V13.475H93.4016ZM92.4016 13.5H97.0266V11.5H92.4016V13.5ZM96.0266 12.5V13.475H98.0266V12.5H96.0266ZM96.4531 12.6558C96.3303 12.7417 96.1897 12.8254 96.0294 12.9056L96.9238 14.6944C97.1634 14.5746 97.3895 14.4416 97.6 14.2942L96.4531 12.6558ZM96.0294 12.9056C95.9043 12.9681 95.7191 13.0392 95.4589 13.1115L95.9942 15.0385C96.334 14.9441 96.6488 14.8319 96.9238 14.6944L96.0294 12.9056ZM94.9497 13.4453L91.5247 17.6703L93.0784 18.9297L96.5034 14.7047L94.9497 13.4453Z" fill="white" mask="url(#path-1-outside-1_0_1771)"/>
<path d="M6.19655 9.26477C7.26728 6.50013 9.37251 3.6206 13.5704 2.66738C13.4663 2.95481 13.3598 3.30125 13.2751 3.69272C13.0256 4.84587 12.9608 6.41738 13.7412 8.01444L13.7413 8.01454C13.8486 8.23397 13.9543 8.44894 14.0582 8.65991C14.6551 9.87301 15.1871 10.9542 15.5668 11.9936C16.0089 13.204 16.227 14.3148 16.0955 15.4414L17.0767 15.5878C17.084 15.5892 17.084 15.5892 17.084 15.5893L17.084 15.5889L17.085 15.5841L17.0904 15.5574C17.0956 15.5326 17.1041 15.4942 17.1164 15.4438C17.1409 15.3429 17.1805 15.1944 17.2393 15.0117C17.3571 14.6452 17.5503 14.1461 17.8505 13.6177C18.3191 12.7932 19.037 11.915 20.1244 11.3431C20.0555 11.5676 19.9861 11.823 19.9226 12.1064C19.6625 13.2683 19.5016 14.9064 19.8929 16.8209L19.8929 16.8209C20.2442 18.5395 20.0244 21.0508 18.8722 23.3431C18.0837 24.9119 16.8617 26.3728 15.0884 27.407C15.2029 27.262 15.314 27.1095 15.4195 26.9495C15.9566 26.1357 16.3578 25.1162 16.3079 23.9208C16.258 22.7236 15.7581 21.4083 14.5972 20.0001L13.7661 18.9922L13.7119 20.296L13.7119 20.2962L13.7118 20.2967L13.7118 20.297L13.7118 20.2974L13.7117 20.2982L13.7108 20.3133C13.7098 20.328 13.7079 20.3516 13.7047 20.383C13.6984 20.446 13.6868 20.54 13.6662 20.6565C13.6248 20.8906 13.5483 21.2093 13.4089 21.5477C13.2978 21.8173 13.1497 22.0937 12.9509 22.3498C13.1584 21.7123 13.3566 20.9143 13.4521 20.0042C13.7013 17.6306 13.2488 14.5073 10.4903 11.5194L9.64626 12.0035C9.64454 12.004 9.64453 12.004 9.64452 12.0039L9.64537 12.007C9.64667 12.0115 9.64895 12.0197 9.65204 12.0314C9.65822 12.0549 9.6676 12.0924 9.67863 12.1428C9.70072 12.2438 9.72936 12.3962 9.75241 12.5913C9.79855 12.982 9.82185 13.5407 9.72717 14.1993C9.53922 15.5068 8.88369 17.2344 6.95863 18.847C4.78063 20.6716 4.22254 23.0686 4.53196 25.1031C4.61141 25.6256 4.74816 26.1262 4.93018 26.5894C4.13038 25.9568 3.28011 25.1598 2.54066 24.1984C1.46791 22.8037 0.636151 21.0739 0.515185 18.9985C0.409316 17.1822 0.845554 15.0617 2.19931 12.6262C2.23433 12.7333 2.27343 12.8441 2.31706 12.9575C2.64574 13.8116 3.25609 14.8719 4.37609 15.4749L5.13438 15.8832L5.11297 15.0226L5.11297 15.0225L5.11296 15.0222L5.11296 15.0219L5.11287 15.0174L5.11257 14.9962C5.11237 14.9768 5.11219 14.9468 5.11236 14.907C5.1127 14.8274 5.11444 14.7084 5.12015 14.5552C5.13158 14.2487 5.15887 13.8062 5.22243 13.2693C5.34978 12.1936 5.62154 10.7495 6.19655 9.26477ZM9.64422 12.003C9.64414 12.0027 9.64414 12.0027 9.6442 12.0029L9.64422 12.003Z" stroke="url(#paint0_linear_0_1771)"/>
<defs>
<linearGradient id="paint0_linear_0_1771" x1="21" y1="15.7547" x2="-0.525" y2="15.7547" gradientUnits="userSpaceOnUse">
<stop stop-color="#17912B"/>
<stop offset="1" stop-color="#2C9140"/>
</linearGradient>
</defs>
</svg>
