<svg width="66" height="68" viewBox="0 0 66 68" fill="none" xmlns="http://www.w3.org/2000/svg">
<path fill-rule="evenodd" clip-rule="evenodd" d="M24.9847 31.9049C24.9851 31.904 24.9853 31.9031 24.9856 31.9022C24.9866 31.8992 24.9876 31.8962 24.9885 31.8932C25.0433 31.7179 25.218 31.6094 25.3993 31.638C29.6176 31.9278 32.6828 30.4126 34.5162 26.3795L34.5164 26.3794C34.5714 26.2276 34.7187 26.1292 34.8799 26.1362L34.8801 26.1361C34.8912 26.1365 34.9024 26.1376 34.9136 26.139C34.9171 26.1396 34.9206 26.1402 34.924 26.1407C34.932 26.1421 34.9398 26.1435 34.9477 26.1453C34.9538 26.1467 34.9599 26.1483 34.9659 26.1502C34.9711 26.1516 34.9763 26.1532 34.9813 26.1549C34.9898 26.1577 34.9981 26.1608 35.0063 26.1644C35.0088 26.1654 35.0114 26.1664 35.0139 26.1674C35.1706 26.2366 35.2594 26.4044 35.2284 26.5729C34.8011 30.9795 36.6969 33.8237 40.4917 35.6818L40.4916 35.6819C40.6589 35.7439 40.758 35.9165 40.7274 36.0922L40.7272 36.0924L40.727 36.0924C40.7259 36.1003 40.7245 36.1082 40.7228 36.1159C40.7215 36.121 40.7201 36.126 40.7187 36.1311C40.7178 36.1342 40.7171 36.1371 40.7162 36.1403C40.6617 36.3154 40.487 36.424 40.3058 36.3957C36.0868 36.1074 33.0218 37.6211 31.1883 41.6541L31.1884 41.6542C31.1333 41.8057 30.9865 41.9042 30.8255 41.8976C30.8244 41.8975 30.8233 41.8974 30.822 41.8974C30.8115 41.8968 30.8011 41.896 30.7906 41.8946C30.7871 41.894 30.7836 41.8934 30.78 41.8928C30.772 41.8914 30.7642 41.89 30.7563 41.8882C30.7501 41.8866 30.7442 41.8849 30.738 41.8832C30.733 41.8817 30.7277 41.8803 30.7227 41.8786C30.7142 41.8758 30.7058 41.8725 30.6976 41.869C30.6952 41.8681 30.6926 41.8671 30.6901 41.8661C30.6796 41.8613 30.6692 41.8561 30.659 41.8504C30.5208 41.7731 30.4471 41.6167 30.4754 41.461C30.902 37.0539 29.0059 34.2113 25.2112 32.3513C25.044 32.2891 24.9448 32.1162 24.9759 31.9404C24.9773 31.9325 24.979 31.9248 24.9809 31.917C24.9818 31.9128 24.9828 31.9085 24.9837 31.9043L24.9847 31.9049Z" fill="url(#paint0_radial_0_100)"/>
<path fill-rule="evenodd" clip-rule="evenodd" d="M24.9847 31.9049C24.9851 31.904 24.9853 31.9031 24.9856 31.9022C24.9866 31.8992 24.9876 31.8962 24.9885 31.8932C25.0433 31.7179 25.218 31.6094 25.3993 31.638C29.6176 31.9278 32.6828 30.4126 34.5162 26.3795L34.5164 26.3794C34.5714 26.2276 34.7187 26.1292 34.8799 26.1362L34.8801 26.1361C34.8912 26.1365 34.9024 26.1376 34.9136 26.139C34.9171 26.1396 34.9206 26.1402 34.924 26.1407C34.932 26.1421 34.9398 26.1435 34.9477 26.1453C34.9538 26.1467 34.9599 26.1483 34.9659 26.1502C34.9711 26.1516 34.9763 26.1532 34.9813 26.1549C34.9898 26.1577 34.9981 26.1608 35.0063 26.1644C35.0088 26.1654 35.0114 26.1664 35.0139 26.1674C35.1706 26.2366 35.2594 26.4044 35.2284 26.5729C34.8011 30.9795 36.6969 33.8237 40.4917 35.6818L40.4916 35.6819C40.6589 35.7439 40.758 35.9165 40.7274 36.0922L40.7272 36.0924L40.727 36.0924C40.7259 36.1003 40.7245 36.1082 40.7228 36.1159C40.7215 36.121 40.7201 36.126 40.7187 36.1311C40.7178 36.1342 40.7171 36.1371 40.7162 36.1403C40.6617 36.3154 40.487 36.424 40.3058 36.3957C36.0868 36.1074 33.0218 37.6211 31.1883 41.6541L31.1884 41.6542C31.1333 41.8057 30.9865 41.9042 30.8255 41.8976C30.8244 41.8975 30.8233 41.8974 30.822 41.8974C30.8115 41.8968 30.8011 41.896 30.7906 41.8946C30.7871 41.894 30.7836 41.8934 30.78 41.8928C30.772 41.8914 30.7642 41.89 30.7563 41.8882C30.7501 41.8866 30.7442 41.8849 30.738 41.8832C30.733 41.8817 30.7277 41.8803 30.7227 41.8786C30.7142 41.8758 30.7058 41.8725 30.6976 41.869C30.6952 41.8681 30.6926 41.8671 30.6901 41.8661C30.6796 41.8613 30.6692 41.8561 30.659 41.8504C30.5208 41.7731 30.4471 41.6167 30.4754 41.461C30.902 37.0539 29.0059 34.2113 25.2112 32.3513C25.044 32.2891 24.9448 32.1162 24.9759 31.9404C24.9773 31.9325 24.979 31.9248 24.9809 31.917C24.9818 31.9128 24.9828 31.9085 24.9837 31.9043L24.9847 31.9049Z" fill="url(#paint1_angular_0_100)" style="mix-blend-mode:difference"/>
<path fill-rule="evenodd" clip-rule="evenodd" d="M24.9847 31.9049C24.9851 31.904 24.9853 31.9031 24.9856 31.9022C24.9866 31.8992 24.9876 31.8962 24.9885 31.8932C25.0433 31.7179 25.218 31.6094 25.3993 31.638C29.6176 31.9278 32.6828 30.4126 34.5162 26.3795L34.5164 26.3794C34.5714 26.2276 34.7187 26.1292 34.8799 26.1362L34.8801 26.1361C34.8912 26.1365 34.9024 26.1376 34.9136 26.139C34.9171 26.1396 34.9206 26.1402 34.924 26.1407C34.932 26.1421 34.9398 26.1435 34.9477 26.1453C34.9538 26.1467 34.9599 26.1483 34.9659 26.1502C34.9711 26.1516 34.9763 26.1532 34.9813 26.1549C34.9898 26.1577 34.9981 26.1608 35.0063 26.1644C35.0088 26.1654 35.0114 26.1664 35.0139 26.1674C35.1706 26.2366 35.2594 26.4044 35.2284 26.5729C34.8011 30.9795 36.6969 33.8237 40.4917 35.6818L40.4916 35.6819C40.6589 35.7439 40.758 35.9165 40.7274 36.0922L40.7272 36.0924L40.727 36.0924C40.7259 36.1003 40.7245 36.1082 40.7228 36.1159C40.7215 36.121 40.7201 36.126 40.7187 36.1311C40.7178 36.1342 40.7171 36.1371 40.7162 36.1403C40.6617 36.3154 40.487 36.424 40.3058 36.3957C36.0868 36.1074 33.0218 37.6211 31.1883 41.6541L31.1884 41.6542C31.1333 41.8057 30.9865 41.9042 30.8255 41.8976C30.8244 41.8975 30.8233 41.8974 30.822 41.8974C30.8115 41.8968 30.8011 41.896 30.7906 41.8946C30.7871 41.894 30.7836 41.8934 30.78 41.8928C30.772 41.8914 30.7642 41.89 30.7563 41.8882C30.7501 41.8866 30.7442 41.8849 30.738 41.8832C30.733 41.8817 30.7277 41.8803 30.7227 41.8786C30.7142 41.8758 30.7058 41.8725 30.6976 41.869C30.6952 41.8681 30.6926 41.8671 30.6901 41.8661C30.6796 41.8613 30.6692 41.8561 30.659 41.8504C30.5208 41.7731 30.4471 41.6167 30.4754 41.461C30.902 37.0539 29.0059 34.2113 25.2112 32.3513C25.044 32.2891 24.9448 32.1162 24.9759 31.9404C24.9773 31.9325 24.979 31.9248 24.9809 31.917C24.9818 31.9128 24.9828 31.9085 24.9837 31.9043L24.9847 31.9049Z" fill="url(#paint2_angular_0_100)" style="mix-blend-mode:screen"/>
<path d="M8.66829 25.4692L9.15267 25.6064L8.47892 27.9851L7.99454 27.8479L8.66829 25.4692ZM4.02087 26.5924L8.513 27.8648L8.34435 28.4602L3.85222 27.1879L4.02087 26.5924ZM6.50278 25.1958L6.98716 25.333L6.40255 27.397L5.91816 27.2598L6.50278 25.1958ZM4.65181 24.3649L5.13928 24.503L4.47426 26.8508L3.98679 26.7128L4.65181 24.3649Z" fill="#00FFBA"/>
<path d="M5.79157 21.6265L7.89226 21.4068L6.77998 19.6112L7.09769 18.9634L8.52392 21.3058L11.305 20.9877L10.9845 21.6412L8.83945 21.8713L9.97069 23.7083L9.65016 24.3619L8.19915 21.968L5.47387 22.2743L5.79157 21.6265Z" fill="#00FFBA"/>
<path d="M11.5807 17.5401L10.8359 18.5408L10.4321 18.2402L11.1768 17.2395C11.3211 17.0458 11.407 16.8659 11.4346 16.6999C11.4622 16.5339 11.4416 16.3826 11.3726 16.2461C11.305 16.1078 11.2009 15.9863 11.0603 15.8816C10.9317 15.7859 10.7897 15.7242 10.6344 15.6966C10.4804 15.6672 10.3244 15.687 10.1664 15.756C10.0068 15.8237 9.85484 15.9545 9.71061 16.1482L9.05199 17.0331L12.3909 19.5182L12.0213 20.0147L8.27605 17.2271L9.30418 15.8457C9.51479 15.5628 9.74172 15.3599 9.98497 15.2372C10.2282 15.1144 10.4741 15.0669 10.7226 15.0947C10.9694 15.1211 11.2034 15.2167 11.4246 15.3814C11.6647 15.5601 11.832 15.7632 11.9265 15.9907C12.0209 16.2182 12.04 16.463 11.9837 16.7248C11.9256 16.9854 11.7913 17.2572 11.5807 17.5401Z" fill="#00FFBA"/>
<path d="M16.5226 14.2666L16.8694 14.6315L15.1773 16.2397L14.8305 15.8748L16.5226 14.2666ZM12.0493 12.7715L15.2656 16.1557L14.817 16.5821L11.6007 13.1978L12.0493 12.7715Z" fill="#00FFBA"/>
<path d="M19.4468 9.87796L19.6079 10.1251C19.7993 10.4188 19.9342 10.706 20.0126 10.9867C20.0909 11.2673 20.1142 11.5341 20.0826 11.787C20.0509 12.0398 19.9664 12.2723 19.829 12.4843C19.6934 12.6952 19.5065 12.8782 19.2683 13.0335C19.0373 13.1841 18.7971 13.2794 18.5476 13.3195C18.2999 13.3585 18.0523 13.3426 17.8046 13.2718C17.5586 13.1999 17.3213 13.0727 17.0925 12.89C16.8638 12.7074 16.6537 12.4693 16.4622 12.1756L16.3011 11.9284C16.1097 11.6347 15.9763 11.3478 15.9009 11.0678C15.8261 10.7848 15.8055 10.5163 15.839 10.2622C15.8712 10.0064 15.9552 9.77308 16.0908 9.56221C16.2282 9.35017 16.4124 9.16886 16.6434 9.01827C16.8816 8.86301 17.1245 8.76591 17.3722 8.72696C17.6216 8.68685 17.869 8.70423 18.1143 8.77911C18.3602 8.85102 18.5957 8.97946 18.8209 9.16441C19.0467 9.3464 19.2553 9.58425 19.4468 9.87796ZM19.0948 10.4595L18.9302 10.207C18.7785 9.97422 18.62 9.78403 18.4549 9.63646C18.2916 9.48772 18.1246 9.38223 17.9539 9.31999C17.7832 9.25774 17.6112 9.23847 17.4378 9.26217C17.2662 9.28471 17.0971 9.35026 16.9306 9.45883C16.7694 9.56389 16.6438 9.69037 16.554 9.83827C16.4659 9.985 16.415 10.1496 16.4012 10.3321C16.3893 10.5134 16.4166 10.7099 16.4832 10.9217C16.5498 11.1335 16.6589 11.3558 16.8107 11.5886L16.9753 11.8411C17.1282 12.0757 17.2887 12.2671 17.4568 12.4153C17.6236 12.5617 17.7939 12.6663 17.9676 12.7292C18.1419 12.7891 18.3139 12.8084 18.4837 12.787C18.6553 12.7645 18.8217 12.7007 18.9829 12.5956C19.1512 12.4859 19.2803 12.3571 19.3702 12.2092C19.4601 12.0613 19.5101 11.8973 19.5203 11.7171C19.5311 11.534 19.5014 11.3377 19.4312 11.1283C19.3599 10.9171 19.2477 10.6941 19.0948 10.4595Z" fill="#00FFBA"/>
<path d="M20.8949 6.77578L22.3315 6.20577C22.6574 6.07648 22.9523 6.01696 23.2163 6.02723C23.4822 6.03671 23.7124 6.11555 23.9069 6.26377C24.1026 6.40921 24.2564 6.62302 24.3684 6.90518C24.4472 7.10389 24.4786 7.30186 24.4626 7.49911C24.4478 7.69359 24.3877 7.87841 24.2824 8.05358C24.1783 8.22597 24.033 8.38137 23.8464 8.51979L23.7103 8.64624L22.3601 9.18195L22.1685 8.71636L23.1878 8.31192C23.3945 8.22993 23.5522 8.12597 23.6609 8.00003C23.7688 7.87211 23.8331 7.73276 23.8538 7.58197C23.8745 7.43117 23.8552 7.28126 23.7961 7.13223C23.7299 6.96532 23.6392 6.83228 23.5239 6.73311C23.4087 6.63394 23.2671 6.57857 23.0992 6.56698C22.9325 6.55262 22.7389 6.5892 22.5183 6.67671L21.657 7.01847L23.1919 10.8873L22.6167 11.1155L20.8949 6.77578ZM25.1532 10.1091L23.3175 8.56059L23.9155 8.31991L25.753 9.82977L25.7672 9.86554L25.1532 10.1091Z" fill="#00FFBA"/>
<path d="M29.404 8.63127L29.504 9.12468L27.081 9.6157L26.981 9.12229L29.404 8.63127ZM26.2763 5.01502L27.2035 9.59086L26.597 9.71377L25.6697 5.13793L26.2763 5.01502ZM28.6549 6.58116L28.7549 7.07458L26.6524 7.50063L26.5524 7.00722L28.6549 6.58116ZM28.5453 4.55521L28.646 5.05177L26.2543 5.53641L26.1537 5.03986L28.5453 4.55521Z" fill="#00FFBA"/>
<path d="M36.789 4.48646L36.4651 9.14405L35.8445 9.10089L33.7496 5.34545L33.4997 8.93781L32.8823 8.89486L33.2063 4.23727L33.8237 4.28021L35.9275 8.04592L36.178 4.44397L36.789 4.48646Z" fill="#00FFBA"/>
<path d="M42.5185 8.12861L42.4359 8.41183C42.3378 8.74842 42.2078 9.03786 42.0459 9.28014C41.884 9.52242 41.6968 9.71392 41.4844 9.85463C41.2719 9.99534 41.0405 10.0826 40.7901 10.1166C40.5418 10.1511 40.2812 10.1286 40.0082 10.049C39.7435 9.97184 39.5146 9.85171 39.3217 9.68859C39.1308 9.52608 38.9815 9.32781 38.8738 9.09379C38.7681 8.86037 38.71 8.5974 38.6995 8.30487C38.6891 8.01235 38.7329 7.69779 38.831 7.3612L38.9135 7.07797C39.0116 6.74139 39.1423 6.45328 39.3057 6.21364C39.4717 5.97256 39.6619 5.78196 39.8765 5.64185C40.0916 5.49968 40.3233 5.41135 40.5716 5.37683C40.822 5.34292 41.0795 5.36454 41.3443 5.4417C41.6173 5.52126 41.8492 5.64229 42.0401 5.8048C42.233 5.96792 42.381 6.16691 42.484 6.40178C42.5896 6.6352 42.6457 6.89758 42.6521 7.18891C42.6611 7.47879 42.6166 7.79202 42.5185 8.12861ZM41.8479 8.24047L41.9323 7.95108C42.01 7.68428 42.0511 7.44018 42.0555 7.21879C42.062 6.998 42.0332 6.80258 41.9692 6.63251C41.9052 6.46245 41.8077 6.31937 41.6768 6.20327C41.5479 6.08777 41.388 6.00221 41.1971 5.94658C41.0124 5.89275 40.8347 5.87992 40.6639 5.90809C40.4952 5.93685 40.3372 6.00547 40.1898 6.11392C40.0444 6.22298 39.9131 6.37175 39.7958 6.56024C39.6786 6.74873 39.5811 6.97638 39.5033 7.24318L39.419 7.53257C39.3406 7.80143 39.2999 8.04788 39.297 8.27191C39.2947 8.4939 39.3262 8.69125 39.3917 8.86396C39.4598 9.03523 39.5572 9.17831 39.6841 9.2932C39.8129 9.4087 39.9697 9.49337 40.1545 9.5472C40.3474 9.60342 40.5292 9.61745 40.7 9.58928C40.8707 9.56112 41.0278 9.4922 41.1711 9.38255C41.317 9.27144 41.4466 9.12105 41.5597 8.93136C41.6735 8.73962 41.7696 8.50933 41.8479 8.24047Z" fill="#00FFBA"/>
<path d="M44.9881 10.4333L47.4084 8.06364L47.7982 8.28626L46.9446 9.25738L44.3914 11.7173L44.0044 11.4963L44.9881 10.4333ZM45.771 7.12866L44.8277 10.2678L44.2884 11.6585L43.9041 11.439L45.2364 6.82336L45.771 7.12866ZM47.2575 11.6516L49.4662 9.23873L50.0036 9.54562L46.7082 13.0403L46.324 12.8208L47.2575 11.6516ZM47.8567 8.31965L47.0236 11.5956L46.608 12.983L46.2209 12.762L47.0727 9.33052L47.4724 8.10022L47.8567 8.31965Z" fill="#00FFBA"/>
<path d="M56.272 15.5274L52.807 18.6566L52.3901 18.1949L53.4872 14.037L50.8147 16.4505L50.3999 15.9912L53.8649 12.862L54.2797 13.3213L53.1819 17.4928L55.8615 15.0729L56.272 15.5274Z" fill="#00FFBA"/>
<path d="M58.0725 18.1519L54.0792 20.5708L53.7585 20.0414L57.7519 17.6225L58.0725 18.1519ZM57.2895 20.9131L56.8561 21.1756L55.773 19.3874L56.2063 19.1249L57.2895 20.9131ZM59.2504 20.0965L58.8171 20.359L57.5694 18.2992L58.0028 18.0367L59.2504 20.0965Z" fill="#00FFBA"/>
<path d="M60.6503 23.2583L56.3042 24.9639L56.0816 24.3967L60.4278 22.6911L60.6503 23.2583ZM61.1986 24.6553L60.7269 24.8404L59.4091 21.4822L59.8807 21.2972L61.1986 24.6553Z" fill="#00FFBA"/>
<path d="M58.8788 29.8989C58.9858 29.8776 59.0768 29.8421 59.1519 29.7923C59.2295 29.7442 59.2938 29.6726 59.3446 29.5775C59.3959 29.4845 59.4378 29.3606 59.4702 29.206C59.5031 29.0534 59.5296 28.8629 59.5496 28.6344C59.5717 28.3946 59.6055 28.1754 59.651 27.9768C59.6987 27.7777 59.763 27.6025 59.8441 27.4513C59.9253 27.3 60.0281 27.1761 60.1528 27.0794C60.2774 26.9827 60.4288 26.9166 60.6071 26.8812C60.7853 26.8458 60.9572 26.8498 61.1227 26.8932C61.2883 26.9366 61.4401 27.0154 61.5784 27.1296C61.7191 27.2455 61.8398 27.3926 61.9406 27.5709C62.0415 27.7492 62.1152 27.9558 62.1618 28.1906C62.2302 28.5345 62.222 28.8391 62.1374 29.1044C62.0553 29.3713 61.9209 29.5887 61.7341 29.7566C61.5494 29.9241 61.3376 30.0316 61.0985 30.079L60.9785 29.4752C61.1505 29.441 61.2952 29.3741 61.4127 29.2745C61.5323 29.1744 61.6151 29.0425 61.661 28.8786C61.709 28.7143 61.7103 28.5179 61.6649 28.2894C61.622 28.0734 61.5541 27.9016 61.4612 27.7741C61.3683 27.6465 61.2594 27.5592 61.1345 27.512C61.01 27.467 60.8765 27.4587 60.7339 27.487C60.6375 27.5062 60.5534 27.5436 60.4816 27.5992C60.4124 27.6566 60.3527 27.7349 60.3027 27.8342C60.2531 27.9356 60.2133 28.059 60.1834 28.2045C60.1539 28.352 60.1316 28.5253 60.1167 28.7245C60.095 28.999 60.0578 29.2396 60.0051 29.4463C59.9524 29.6529 59.8816 29.8282 59.7925 29.9723C59.7059 30.1181 59.5972 30.2345 59.4663 30.3216C59.3379 30.4103 59.1846 30.4724 59.0063 30.5078C58.8197 30.5448 58.6434 30.5406 58.4775 30.4951C58.3115 30.4497 58.1611 30.3673 58.0263 30.248C57.8914 30.1288 57.7751 29.9765 57.6772 29.791C57.5818 29.6073 57.5102 29.3948 57.4623 29.1537C57.4202 28.9419 57.4081 28.7275 57.426 28.5103C57.4443 28.2953 57.4955 28.0922 57.5796 27.9012C57.6641 27.7122 57.7824 27.5503 57.9343 27.4155C58.0888 27.2824 58.2803 27.1931 58.5088 27.1477L58.6288 27.7516C58.4715 27.7828 58.3423 27.8401 58.2412 27.9234C58.1421 28.0063 58.0663 28.1074 58.0138 28.2268C57.9616 28.3484 57.9311 28.4798 57.9221 28.621C57.9156 28.764 57.9269 28.9088 57.9561 29.0556C57.9982 29.2674 58.0631 29.4408 58.151 29.5759C58.2389 29.7111 58.3448 29.8055 58.4689 29.8593C58.5933 29.9153 58.73 29.9284 58.8788 29.8989Z" fill="#00FFBA"/>
<path d="M57.5771 42.6026L57.0927 42.4654L57.7664 40.0867L58.2508 40.2239L57.5771 42.6026ZM62.2245 41.4793L57.7324 40.207L57.901 39.6115L62.3931 40.8839L62.2245 41.4793ZM59.7426 42.876L59.2582 42.7388L59.8428 40.6748L60.3272 40.812L59.7426 42.876ZM61.5936 43.7069L61.1061 43.5688L61.7711 41.2209L62.2586 41.359L61.5936 43.7069Z" fill="#00FFBA"/>
<path d="M60.4534 46.4453L58.3527 46.665L59.465 48.4606L59.1473 49.1083L57.7211 46.7659L54.94 47.0841L55.2605 46.4306L57.4055 46.2005L56.2743 44.3635L56.5948 43.7099L58.0458 46.1038L60.7711 45.7975L60.4534 46.4453Z" fill="#00FFBA"/>
<path d="M54.6647 50.5315L55.4095 49.5309L55.8133 49.8315L55.0685 50.8321C54.9243 51.0259 54.8384 51.2058 54.8108 51.3718C54.7832 51.5378 54.8038 51.689 54.8727 51.8256C54.9403 51.9639 55.0445 52.0854 55.1851 52.19C55.3137 52.2857 55.4557 52.3474 55.611 52.3751C55.765 52.4045 55.921 52.3846 56.0789 52.3157C56.2386 52.2479 56.3905 52.1172 56.5348 51.9234L57.1934 51.0385L53.8545 48.5534L54.224 48.057L57.9693 50.8446L56.9412 52.2259C56.7306 52.5089 56.5036 52.7117 56.2604 52.8345C56.0171 52.9572 55.7712 53.0047 55.5227 52.977C55.2759 52.9505 55.0419 52.855 54.8207 52.6903C54.5806 52.5116 54.4134 52.3085 54.3189 52.0809C54.2244 51.8534 54.2054 51.6087 54.2617 51.3468C54.3197 51.0862 54.4541 50.8145 54.6647 50.5315Z" fill="#00FFBA"/>
<path d="M49.7228 53.8052L49.376 53.4403L51.0681 51.8321L51.4149 52.197L49.7228 53.8052ZM54.1961 55.3003L50.9798 51.916L51.4284 51.4897L54.6447 54.8739L54.1961 55.3003Z" fill="#00FFBA"/>
<path d="M46.7986 58.1937L46.6375 57.9466C46.446 57.6529 46.3111 57.3657 46.2328 57.085C46.1545 56.8043 46.1311 56.5375 46.1628 56.2847C46.1945 56.0318 46.279 55.7994 46.4164 55.5874C46.552 55.3765 46.7389 55.1934 46.977 55.0382C47.2081 54.8876 47.4483 54.7922 47.6978 54.7521C47.9454 54.7132 48.1931 54.7291 48.4408 54.7998C48.6867 54.8717 48.9241 54.999 49.1528 55.1816C49.3816 55.3642 49.5917 55.6024 49.7831 55.8961L49.9442 56.1432C50.1357 56.4369 50.2691 56.7238 50.3445 57.0039C50.4192 57.2869 50.4399 57.5554 50.4064 57.8094C50.3741 58.0652 50.2902 58.2986 50.1546 58.5094C50.0172 58.7215 49.833 58.9028 49.602 59.0534C49.3638 59.2086 49.1209 59.3057 48.8732 59.3447C48.6238 59.3848 48.3764 59.3674 48.1311 59.2925C47.8852 59.2206 47.6496 59.0922 47.4244 58.9072C47.1986 58.7253 46.99 58.4874 46.7986 58.1937ZM47.1506 57.6121L47.3152 57.8646C47.4669 58.0974 47.6253 58.2876 47.7904 58.4352C47.9537 58.5839 48.1207 58.6894 48.2914 58.7517C48.4622 58.8139 48.6342 58.8332 48.8076 58.8095C48.9792 58.7869 49.1483 58.7214 49.3148 58.6128C49.476 58.5078 49.6015 58.3813 49.6914 58.2334C49.7795 58.0867 49.8304 57.9221 49.8441 57.7396C49.8561 57.5583 49.8288 57.3617 49.7622 57.1499C49.6956 56.9382 49.5864 56.7159 49.4347 56.4831L49.2701 56.2305C49.1171 55.9959 48.9566 55.8045 48.7886 55.6563C48.6217 55.5099 48.4514 55.4053 48.2778 55.3424C48.1035 55.2825 47.9314 55.2633 47.7616 55.2846C47.59 55.3072 47.4236 55.371 47.2625 55.476C47.0941 55.5858 46.965 55.7146 46.8751 55.8625C46.7853 56.0104 46.7352 56.1744 46.7251 56.3545C46.7143 56.5376 46.744 56.7339 46.8142 56.9434C46.8855 57.1546 46.9976 57.3775 47.1506 57.6121Z" fill="#00FFBA"/>
<path d="M45.3501 61.296L43.9135 61.866C43.5876 61.9953 43.2927 62.0548 43.0287 62.0445C42.7628 62.0351 42.5326 61.9562 42.3381 61.808C42.1424 61.6626 41.9886 61.4488 41.8766 61.1666C41.7978 60.9679 41.7664 60.7699 41.7824 60.5727C41.7972 60.3782 41.8573 60.1934 41.9626 60.0182C42.0667 59.8458 42.212 59.6904 42.3986 59.552L42.5347 59.4255L43.8849 58.8898L44.0765 59.3554L43.0572 59.7599C42.8505 59.8419 42.6928 59.9458 42.5841 60.0717C42.4762 60.1997 42.4119 60.339 42.3912 60.4898C42.3705 60.6406 42.3898 60.7905 42.4489 60.9395C42.5151 61.1065 42.6058 61.2395 42.7211 61.3387C42.8363 61.4378 42.9779 61.4932 43.1458 61.5048C43.3125 61.5192 43.5061 61.4826 43.7266 61.3951L44.588 61.0533L43.0531 57.1845L43.6283 56.9563L45.3501 61.296ZM41.0918 57.9626L42.9275 59.5112L42.3295 59.7519L40.492 58.242L40.4778 58.2062L41.0918 57.9626Z" fill="#00FFBA"/>
<path d="M36.8423 59.4404L36.7423 58.947L39.1654 58.456L39.2653 58.9494L36.8423 59.4404ZM39.9701 63.0566L39.0428 58.4808L39.6493 58.3579L40.5766 62.9337L39.9701 63.0566ZM37.5915 61.4905L37.4915 60.9971L39.594 60.571L39.694 61.0644L37.5915 61.4905ZM37.701 63.5164L37.6004 63.0199L39.992 62.5352L40.0926 63.0318L37.701 63.5164Z" fill="#00FFBA"/>
<path d="M29.4561 63.5853L29.78 58.9277L30.4006 58.9709L32.4955 62.7263L32.7454 59.134L33.3628 59.1769L33.0388 63.8345L32.4215 63.7916L30.3176 60.0259L30.0671 63.6278L29.4561 63.5853Z" fill="#00FFBA"/>
<path d="M23.7266 59.9432L23.8092 59.6599C23.9073 59.3234 24.0373 59.0339 24.1992 58.7916C24.3611 58.5494 24.5483 58.3579 24.7607 58.2171C24.9732 58.0764 25.2046 57.9891 25.455 57.9552C25.7033 57.9207 25.9639 57.9432 26.2369 58.0228C26.5017 58.0999 26.7305 58.2201 26.9234 58.3832C27.1143 58.5457 27.2636 58.744 27.3713 58.978C27.477 59.2114 27.5351 59.4744 27.5456 59.7669C27.5561 60.0594 27.5123 60.374 27.4142 60.7106L27.3316 60.9938C27.2335 61.3304 27.1028 61.6185 26.9394 61.8581C26.7734 62.0992 26.5832 62.2898 26.3687 62.4299C26.1535 62.5721 25.9218 62.6604 25.6735 62.6949C25.4231 62.7289 25.1656 62.7072 24.9008 62.6301C24.6279 62.5505 24.3959 62.4295 24.205 62.267C24.0121 62.1039 23.8641 61.9049 23.7611 61.67C23.6555 61.4366 23.5994 61.1742 23.5931 60.8829C23.584 60.593 23.6285 60.2798 23.7266 59.9432ZM24.3972 59.8313L24.3129 60.1207C24.2351 60.3875 24.194 60.6316 24.1896 60.853C24.1832 61.0738 24.2119 61.2692 24.2759 61.4393C24.3399 61.6093 24.4374 61.7524 24.5683 61.8685C24.6972 61.984 24.8571 62.0696 25.048 62.1252C25.2327 62.179 25.4104 62.1919 25.5812 62.1637C25.7499 62.1349 25.9079 62.0663 26.0553 61.9579C26.2007 61.8488 26.332 61.7 26.4493 61.5115C26.5665 61.323 26.6641 61.0954 26.7418 60.8286L26.8262 60.5392C26.9045 60.2704 26.9452 60.0239 26.9481 59.7999C26.9505 59.5779 26.9189 59.3805 26.8535 59.2078C26.7854 59.0366 26.6879 58.8935 26.5611 58.7786C26.4322 58.6631 26.2754 58.5784 26.0907 58.5246C25.8977 58.4684 25.7159 58.4543 25.5451 58.4825C25.3744 58.5107 25.2174 58.5796 25.0741 58.6892C24.9281 58.8003 24.7986 58.9507 24.6854 59.1404C24.5716 59.3322 24.4755 59.5625 24.3972 59.8313Z" fill="#00FFBA"/>
<path d="M21.2569 57.6385L18.8366 60.0081L18.4468 59.7855L19.3004 58.8144L21.8535 56.3545L22.2406 56.5755L21.2569 57.6385ZM20.474 60.9431L21.4173 57.8039L21.9566 56.4133L22.3408 56.6327L21.0086 61.2484L20.474 60.9431ZM18.9875 56.4201L16.7788 58.833L16.2414 58.5262L19.5368 55.0315L19.921 55.2509L18.9875 56.4201ZM18.3883 59.7521L19.2214 56.4762L19.637 55.0887L20.0241 55.3098L19.1723 58.7413L18.7726 59.9716L18.3883 59.7521Z" fill="#00FFBA"/>
<path d="M9.97336 52.5445L13.4383 49.4153L13.8553 49.877L12.7581 54.0349L15.4306 51.6213L15.8454 52.0806L12.3805 55.2099L11.9657 54.7506L13.0635 50.5791L10.3839 52.999L9.97336 52.5445Z" fill="#00FFBA"/>
<path d="M8.17245 49.9199L12.1658 47.501L12.4865 48.0303L8.49309 50.4492L8.17245 49.9199ZM8.95551 47.1587L9.38885 46.8962L10.472 48.6844L10.0387 48.9469L8.95551 47.1587ZM6.99456 47.9753L7.42791 47.7128L8.67557 49.7726L8.24222 50.0351L6.99456 47.9753Z" fill="#00FFBA"/>
<path d="M5.59477 44.8134L9.94094 43.1078L10.1635 43.6749L5.81734 45.3805L5.59477 44.8134ZM5.04655 43.4164L5.51818 43.2313L6.83602 46.5894L6.36439 46.7745L5.04655 43.4164Z" fill="#00FFBA"/>
<path d="M7.36628 38.1729C7.25935 38.1942 7.16832 38.2297 7.09321 38.2795C7.01559 38.3276 6.95136 38.3992 6.9005 38.4943C6.84924 38.5873 6.80736 38.7111 6.77488 38.8658C6.74199 39.0184 6.71554 39.2089 6.69554 39.4373C6.67344 39.6771 6.63961 39.8964 6.59408 40.095C6.54645 40.2941 6.48208 40.4693 6.40097 40.6205C6.31987 40.7717 6.21699 40.8957 6.09235 40.9924C5.96771 41.0891 5.81628 41.1551 5.63805 41.1905C5.45983 41.226 5.28794 41.222 5.12239 41.1786C4.95685 41.1352 4.80497 41.0564 4.66676 40.9422C4.52605 40.8263 4.40528 40.6792 4.30447 40.5009C4.20366 40.3225 4.12993 40.116 4.08327 39.8811C4.01496 39.5373 4.0231 39.2327 4.10771 38.9674C4.18981 38.7005 4.32424 38.483 4.51102 38.3152C4.69571 38.1477 4.90756 38.0402 5.1466 37.9927L5.26657 38.5966C5.09463 38.6308 4.94991 38.6977 4.83239 38.7973C4.71277 38.8973 4.63001 39.0293 4.58411 39.1932C4.5361 39.3574 4.5348 39.5539 4.58021 39.7824C4.62311 39.9984 4.69102 40.1701 4.78393 40.2977C4.87684 40.4253 4.98573 40.5126 5.11061 40.5597C5.23507 40.6048 5.36859 40.6131 5.51117 40.5848C5.60762 40.5656 5.69173 40.5282 5.76349 40.4725C5.83274 40.4152 5.89237 40.3369 5.94239 40.2376C5.99199 40.1362 6.03177 40.0128 6.06172 39.8673C6.09126 39.7198 6.11349 39.5464 6.12842 39.3473C6.15015 39.0727 6.18735 38.8321 6.24002 38.6255C6.29269 38.4189 6.36356 38.2435 6.45263 38.0994C6.53918 37.9536 6.64791 37.8372 6.77883 37.7502C6.90723 37.6615 7.06055 37.5994 7.23877 37.564C7.42538 37.5269 7.60167 37.5311 7.76764 37.5766C7.9336 37.6221 8.084 37.7045 8.21885 37.8237C8.35369 37.943 8.47005 38.0953 8.56792 38.2807C8.66327 38.4645 8.7349 38.6769 8.7828 38.9181C8.82488 39.1298 8.83697 39.3443 8.81908 39.5614C8.80078 39.7765 8.74958 39.9795 8.66549 40.1706C8.58098 40.3596 8.46275 40.5215 8.31081 40.6563C8.15636 40.7894 7.96486 40.8787 7.73631 40.9241L7.61634 40.3202C7.7736 40.289 7.9028 40.2317 8.00394 40.1484C8.10299 40.0655 8.17879 39.9644 8.23135 39.8449C8.2835 39.7234 8.31406 39.592 8.32304 39.4508C8.32952 39.3078 8.31817 39.1629 8.28901 39.0162C8.24694 38.8044 8.18197 38.6309 8.0941 38.4958C8.00623 38.3607 7.90028 38.2663 7.77625 38.2124C7.65181 38.1565 7.51515 38.1433 7.36628 38.1729Z" fill="#00FFBA"/>
<path d="M6.43287 33.2541C6.43287 34.1608 5.69782 34.8959 4.79108 34.8959C3.88435 34.8959 3.14929 34.1608 3.14929 33.2541C3.14929 32.3474 3.88435 31.6123 4.79108 31.6123C5.69782 31.6123 6.43287 32.3474 6.43287 33.2541Z" fill="url(#paint3_radial_0_100)"/>
<path d="M6.43287 33.2541C6.43287 34.1608 5.69782 34.8959 4.79108 34.8959C3.88435 34.8959 3.14929 34.1608 3.14929 33.2541C3.14929 32.3474 3.88435 31.6123 4.79108 31.6123C5.69782 31.6123 6.43287 32.3474 6.43287 33.2541Z" fill="url(#paint4_angular_0_100)" style="mix-blend-mode:difference"/>
<path d="M6.43287 33.2541C6.43287 34.1608 5.69782 34.8959 4.79108 34.8959C3.88435 34.8959 3.14929 34.1608 3.14929 33.2541C3.14929 32.3474 3.88435 31.6123 4.79108 31.6123C5.69782 31.6123 6.43287 32.3474 6.43287 33.2541Z" fill="url(#paint5_angular_0_100)" style="mix-blend-mode:screen"/>
<path d="M62.85 35.7463C62.85 36.653 62.1149 37.3881 61.2082 37.3881C60.3015 37.3881 59.5664 36.653 59.5664 35.7463C59.5664 34.8395 60.3015 34.1045 61.2082 34.1045C62.1149 34.1045 62.85 34.8395 62.85 35.7463Z" fill="url(#paint6_radial_0_100)"/>
<path d="M62.85 35.7463C62.85 36.653 62.1149 37.3881 61.2082 37.3881C60.3015 37.3881 59.5664 36.653 59.5664 35.7463C59.5664 34.8395 60.3015 34.1045 61.2082 34.1045C62.1149 34.1045 62.85 34.8395 62.85 35.7463Z" fill="url(#paint7_angular_0_100)" style="mix-blend-mode:difference"/>
<path d="M62.85 35.7463C62.85 36.653 62.1149 37.3881 61.2082 37.3881C60.3015 37.3881 59.5664 36.653 59.5664 35.7463C59.5664 34.8395 60.3015 34.1045 61.2082 34.1045C62.1149 34.1045 62.85 34.8395 62.85 35.7463Z" fill="url(#paint8_angular_0_100)" style="mix-blend-mode:screen"/>
<defs>
<radialGradient id="paint0_radial_0_100" cx="0" cy="0" r="1" gradientUnits="userSpaceOnUse" gradientTransform="translate(24.8347 31.8689) rotate(15) scale(16.5998)">
<stop stop-color="#78FFF1"/>
<stop offset="0.2" stop-color="#D0DEFF"/>
<stop offset="0.4" stop-color="#DF97DF"/>
<stop offset="0.6" stop-color="#97EBBE"/>
<stop offset="0.8" stop-color="#F1FCAF"/>
<stop offset="1" stop-color="#C2E3F1"/>
</radialGradient>
<radialGradient id="paint1_angular_0_100" cx="0" cy="0" r="1" gradientUnits="userSpaceOnUse" gradientTransform="translate(32.8518 34.0171) rotate(43.0863) scale(6.13427)">
<stop stop-color="white"/>
<stop offset="0.125"/>
<stop offset="0.25" stop-color="white"/>
<stop offset="0.375"/>
<stop offset="0.5" stop-color="white"/>
<stop offset="0.625"/>
<stop offset="0.75" stop-color="white"/>
<stop offset="0.875"/>
<stop offset="1" stop-color="white"/>
</radialGradient>
<radialGradient id="paint2_angular_0_100" cx="0" cy="0" r="1" gradientUnits="userSpaceOnUse" gradientTransform="translate(32.8518 34.0171) rotate(43.0863) scale(6.13427)">
<stop stop-color="white"/>
<stop offset="0.125"/>
<stop offset="0.25" stop-color="white"/>
<stop offset="0.375"/>
<stop offset="0.5" stop-color="white"/>
<stop offset="0.625"/>
<stop offset="0.75" stop-color="white"/>
<stop offset="0.875"/>
<stop offset="1" stop-color="white"/>
</radialGradient>
<radialGradient id="paint3_radial_0_100" cx="0" cy="0" r="1" gradientUnits="userSpaceOnUse" gradientTransform="translate(6.43287 31.6123) rotate(135) scale(4.64369)">
<stop stop-color="#78FFF1"/>
<stop offset="0.2" stop-color="#D0DEFF"/>
<stop offset="0.4" stop-color="#DF97DF"/>
<stop offset="0.6" stop-color="#97EBBE"/>
<stop offset="0.8" stop-color="#F1FCAF"/>
<stop offset="1" stop-color="#C2E3F1"/>
</radialGradient>
<radialGradient id="paint4_angular_0_100" cx="0" cy="0" r="1" gradientUnits="userSpaceOnUse" gradientTransform="translate(4.79108 33.2541) rotate(106.914) scale(1.71602)">
<stop stop-color="white"/>
<stop offset="0.125"/>
<stop offset="0.25" stop-color="white"/>
<stop offset="0.375"/>
<stop offset="0.5" stop-color="white"/>
<stop offset="0.625"/>
<stop offset="0.75" stop-color="white"/>
<stop offset="0.875"/>
<stop offset="1" stop-color="white"/>
</radialGradient>
<radialGradient id="paint5_angular_0_100" cx="0" cy="0" r="1" gradientUnits="userSpaceOnUse" gradientTransform="translate(4.79108 33.2541) rotate(106.914) scale(1.71602)">
<stop stop-color="white"/>
<stop offset="0.125"/>
<stop offset="0.25" stop-color="white"/>
<stop offset="0.375"/>
<stop offset="0.5" stop-color="white"/>
<stop offset="0.625"/>
<stop offset="0.75" stop-color="white"/>
<stop offset="0.875"/>
<stop offset="1" stop-color="white"/>
</radialGradient>
<radialGradient id="paint6_radial_0_100" cx="0" cy="0" r="1" gradientUnits="userSpaceOnUse" gradientTransform="translate(62.85 34.1045) rotate(135) scale(4.64369)">
<stop stop-color="#78FFF1"/>
<stop offset="0.2" stop-color="#D0DEFF"/>
<stop offset="0.4" stop-color="#DF97DF"/>
<stop offset="0.6" stop-color="#97EBBE"/>
<stop offset="0.8" stop-color="#F1FCAF"/>
<stop offset="1" stop-color="#C2E3F1"/>
</radialGradient>
<radialGradient id="paint7_angular_0_100" cx="0" cy="0" r="1" gradientUnits="userSpaceOnUse" gradientTransform="translate(61.2082 35.7463) rotate(106.914) scale(1.71602)">
<stop stop-color="white"/>
<stop offset="0.125"/>
<stop offset="0.25" stop-color="white"/>
<stop offset="0.375"/>
<stop offset="0.5" stop-color="white"/>
<stop offset="0.625"/>
<stop offset="0.75" stop-color="white"/>
<stop offset="0.875"/>
<stop offset="1" stop-color="white"/>
</radialGradient>
<radialGradient id="paint8_angular_0_100" cx="0" cy="0" r="1" gradientUnits="userSpaceOnUse" gradientTransform="translate(61.2082 35.7463) rotate(106.914) scale(1.71602)">
<stop stop-color="white"/>
<stop offset="0.125"/>
<stop offset="0.25" stop-color="white"/>
<stop offset="0.375"/>
<stop offset="0.5" stop-color="white"/>
<stop offset="0.625"/>
<stop offset="0.75" stop-color="white"/>
<stop offset="0.875"/>
<stop offset="1" stop-color="white"/>
</radialGradient>
</defs>
</svg>
